<svg width="374" height="398" viewBox="0 0 374 398" fill="none" xmlns="http://www.w3.org/2000/svg">
<path d="M217.364 17.7942C183.155 48.5354 153.598 46.9197 135.115 32.68C116.653 68.2683 87.0964 103.986 52.8868 112.754L33.3478 165.533C33.3478 165.533 43.8174 177.597 43.8174 206.464C43.7142 218.562 42.0856 230.599 38.9704 242.289C35.4159 256.529 30.8273 271.264 30.8273 295.887C30.8273 312.561 32.9815 328.782 41.4693 343.539C46.5916 352.468 53.968 359.897 62.8611 365.082L33.1539 347.848C23.7856 342.666 16.0037 335.033 10.6419 325.766C2.19722 310.988 0.0429688 294.788 0.0429688 278.093C0.0429688 253.491 4.63153 238.734 8.18605 224.473C11.284 212.788 12.8909 200.758 12.9685 188.67C12.9685 159.803 2.49882 147.739 2.49882 147.739L22.0164 94.9595C56.2259 86.1917 85.7823 50.4742 104.244 14.8859C122.728 29.1255 152.284 30.7412 186.494 0L217.364 17.7942Z" fill="#BA68C8"/>
<path opacity="0.8" d="M115.123 21.1546L104.352 14.8857C107.65 17.4404 111.272 19.5482 115.123 21.1546Z" fill="white"/>
<path opacity="0.85" d="M186.537 0.0429688C158.381 25.3339 133.391 28.7161 115.123 21.1978L135.115 32.723C153.598 46.9626 183.154 48.5783 217.364 17.8371L186.537 0.0429688Z" fill="white"/>
<path opacity="0.65" d="M104.287 14.8857C85.8255 50.474 56.2691 86.1916 22.0596 94.9594L52.8869 112.754C87.0965 103.986 116.653 68.2682 135.115 32.6799L104.287 14.8857Z" fill="white"/>
<path opacity="0.55" d="M22.0595 94.96L2.54199 147.739L33.3478 165.533L52.8869 112.754L22.0595 94.96Z" fill="white"/>
<path opacity="0.4" d="M41.4694 343.539C33.0247 328.782 30.8274 312.561 30.8274 295.887C30.8274 271.264 35.416 256.529 38.9705 242.289C42.0857 230.599 43.7143 218.562 43.8176 206.464C43.8176 177.597 33.3479 165.533 33.3479 165.533L2.54202 147.739C2.54202 147.739 13.0117 159.803 13.0117 188.67C12.906 200.762 11.2701 212.792 8.14308 224.473C4.58856 238.734 0 253.491 0 278.093C0 294.788 2.15424 310.988 10.642 325.745C16.0039 335.011 23.7857 342.644 33.154 347.826L62.8612 365.06C53.9708 359.881 46.5947 352.46 41.4694 343.539Z" fill="white"/>
<path opacity="0.05" d="M41.4694 343.539C33.0247 328.782 30.8274 312.561 30.8274 295.887C30.8274 271.264 35.416 256.529 38.9705 242.289C42.0857 230.599 43.7143 218.562 43.8176 206.464C43.8176 177.597 33.3479 165.533 33.3479 165.533L2.54202 147.739C2.54202 147.739 13.0117 159.803 13.0117 188.67C12.906 200.762 11.2701 212.792 8.14308 224.473C4.58856 238.734 0 253.491 0 278.093C0 294.788 2.15424 310.988 10.642 325.745C16.0039 335.011 23.7857 342.644 33.154 347.826L62.8612 365.06C53.9708 359.881 46.5947 352.46 41.4694 343.539Z" fill="black"/>
<path d="M135.115 379.687C84.0157 380.269 54.7394 366.762 41.4476 343.539C33.0245 328.782 30.8271 312.561 30.8271 295.865C30.8271 271.264 35.3942 256.55 38.9703 242.289C42.0855 230.606 43.7141 218.576 43.8173 206.485C43.8173 177.618 33.3477 165.554 33.3477 165.554L52.8867 112.754C87.0963 103.986 116.653 68.2466 135.115 32.6798C153.598 46.9195 183.155 48.5352 217.364 17.7939L236.903 47.9535C230.189 64.8341 226.633 82.8043 226.412 100.97C226.231 111.232 227.88 121.445 231.281 131.129C234.835 141.254 239.424 150.711 239.424 175.313C239.368 195.762 235.767 216.047 228.782 235.266C215.468 273.956 186.235 321.242 135.115 379.687Z" fill="#BA68C8"/>
<path opacity="0.75" d="M135.115 379.687C84.0157 380.269 54.7394 366.762 41.4476 343.539C33.0245 328.782 30.8271 312.561 30.8271 295.865C30.8271 271.264 35.3942 256.55 38.9703 242.289C42.0855 230.606 43.7141 218.576 43.8173 206.485C43.8173 177.618 33.3477 165.554 33.3477 165.554L52.8867 112.754C87.0963 103.986 116.653 68.2466 135.115 32.6798C153.598 46.9195 183.155 48.5352 217.364 17.7939L236.903 47.9535C230.189 64.8341 226.633 82.8043 226.412 100.97C226.231 111.232 227.88 121.445 231.281 131.129C234.835 141.254 239.424 150.711 239.424 175.313C239.368 195.762 235.767 216.047 228.782 235.266C215.468 273.956 186.235 321.242 135.115 379.687Z" fill="white"/>
<path d="M129.061 366.417C89.4878 365.943 63.8953 356.034 52.9947 336.969C46.8336 326.197 44.0977 313.53 44.0977 295.865C44.0961 280.464 46.2719 265.139 50.5604 250.346C50.9697 248.709 51.4006 247.115 51.7884 245.499C55.1938 232.771 56.9602 219.661 57.0447 206.485C57.0447 185.438 52.0038 171.673 47.9969 164.047L63.0766 123.547C99.699 110.815 126.175 74.6449 140.199 50.9266C147.753 54.1382 155.881 55.78 164.09 55.7521C180.634 55.7521 197.459 49.591 214.262 37.4194L222.125 49.6125C216.399 66.1689 213.373 83.5386 213.164 101.056C212.972 112.836 214.869 124.557 218.765 135.675C219.174 136.838 219.605 138.002 220.036 139.165C223.181 147.782 226.154 155.903 226.154 175.443C226.081 194.416 222.729 213.234 216.244 231.065C203.168 269.023 173.848 314.564 129.061 366.417Z" fill="#BA68C8"/>
<path opacity="0.4" d="M129.061 366.417C89.4878 365.943 63.8953 356.034 52.9947 336.969C46.8336 326.197 44.0977 313.53 44.0977 295.865C44.0961 280.464 46.2719 265.139 50.5604 250.346C50.9697 248.709 51.4006 247.115 51.7884 245.499C55.1938 232.771 56.9602 219.661 57.0447 206.485C57.0447 185.438 52.0038 171.673 47.9969 164.047L63.0766 123.547C99.699 110.815 126.175 74.6449 140.199 50.9266C147.753 54.1382 155.881 55.78 164.09 55.7521C180.634 55.7521 197.459 49.591 214.262 37.4194L222.125 49.6125C216.399 66.1689 213.373 83.5386 213.164 101.056C212.972 112.836 214.869 124.557 218.765 135.675C219.174 136.838 219.605 138.002 220.036 139.165C223.181 147.782 226.154 155.903 226.154 175.443C226.081 194.416 222.729 213.234 216.244 231.065C203.168 269.023 173.848 314.564 129.061 366.417Z" fill="white"/>
<path opacity="0.15" d="M129.061 366.417C89.4878 365.943 63.8953 356.034 52.9947 336.969C46.8336 326.197 44.0977 313.53 44.0977 295.865C44.0961 280.464 46.2719 265.139 50.5604 250.346C50.9697 248.709 51.4006 247.115 51.7884 245.499C55.1938 232.771 56.9602 219.661 57.0447 206.485C57.0447 185.438 52.0038 171.673 47.9969 164.047L63.0766 123.547C99.699 110.815 126.175 74.6449 140.199 50.9266C147.753 54.1382 155.881 55.78 164.09 55.7521C180.634 55.7521 197.459 49.591 214.262 37.4194L222.125 49.6125C216.399 66.1689 213.373 83.5386 213.164 101.056C212.972 112.836 214.869 124.557 218.765 135.675C219.174 136.838 219.605 138.002 220.036 139.165C223.181 147.782 226.154 155.903 226.154 175.443C226.081 194.416 222.729 213.234 216.244 231.065C203.168 269.023 173.848 314.564 129.061 366.417Z" fill="black"/>
<path opacity="0.8" d="M62.0645 347.934C75.5501 359.825 97.9543 366.051 129.062 366.417L109.221 355.107C93.2147 355.325 77.2821 352.901 62.0645 347.934Z" fill="white"/>
<path opacity="0.15" d="M211.763 43.6452L222.104 49.6125L214.241 37.4194L209.738 40.5215L211.763 43.6452Z" fill="black"/>
<path d="M208.403 129.708C204.507 118.589 202.61 106.869 202.802 95.0888C203.011 77.5713 206.037 60.2016 211.763 43.6452L209.738 40.5215C194.443 50.6249 179.148 55.7521 164.068 55.7521C155.86 55.78 147.732 54.1382 140.177 50.9265C126.153 74.6233 99.6775 110.815 63.0552 123.546L47.9754 164.046C51.9823 171.673 57.0232 185.438 57.0232 206.485C56.9387 219.661 55.1723 232.771 51.7668 245.499C51.3791 247.115 50.9482 248.709 50.5389 250.346C46.2504 265.139 44.0747 280.463 44.0762 295.865C44.0762 313.53 46.8121 326.197 52.9733 336.968C56.2175 342.517 60.6276 347.294 65.8988 350.971C79.1259 357.003 96.7477 360.163 118.764 360.45C163.53 308.575 192.849 263.056 205.925 225.098C212.412 207.267 215.765 188.449 215.835 169.475C215.835 149.936 212.84 141.815 209.695 133.198C209.243 132.034 208.812 130.871 208.403 129.708Z" fill="#455A64"/>
<path d="M63.0552 123.546L47.9754 164.046C51.9823 171.672 57.0232 185.438 57.0232 206.485C56.9387 219.66 55.1723 232.771 51.7668 245.499C51.3791 247.114 50.9482 248.708 50.5389 250.346C46.2504 265.138 44.0747 280.463 44.0762 295.865C44.0762 313.53 46.8121 326.197 52.9733 336.968C56.2175 342.516 60.6276 347.294 65.8988 350.971C79.1259 357.003 96.7477 360.162 118.764 360.45V211.16L140.307 204.697V50.9263C133.947 61.7046 126.744 71.9622 118.764 81.6029C104.395 98.9015 85.6533 115.683 63.0552 123.546Z" fill="#37474F"/>
<path d="M170.487 156.054C170.257 155.632 169.982 155.234 169.669 154.869L169.561 154.74C168.932 154.056 168.207 153.468 167.407 152.995L160.233 148.859C158.937 148.133 157.545 147.596 156.097 147.265C155.23 147.074 154.352 146.938 153.469 146.855V125.614C153.469 114.951 149.44 106.528 142.417 102.478C135.395 98.4278 127.338 99.1171 119.087 103.943C103.749 112.797 91.7494 134.404 91.7494 153.124V178.2L77.4451 186.451C77.0198 186.696 76.6162 186.977 76.2388 187.291L75.851 187.592C75.2657 188.061 74.7877 188.649 74.4495 189.318C74.1113 189.987 73.9207 190.721 73.8906 191.47V277.489C73.8985 277.86 73.9491 278.229 74.0414 278.588C74.4922 280.036 75.4477 281.275 76.7343 282.078L77.5313 282.595L81.0428 284.62L84.7265 286.774C86.1649 287.57 87.7213 288.13 89.3366 288.433C93.7442 289.407 98.3535 288.813 102.37 286.753L167.493 249.161C168.5 248.715 169.369 248.009 170.013 247.115C170.657 246.222 171.051 245.173 171.155 244.077V158.101C171.104 157.374 170.875 156.671 170.487 156.054ZM105.752 153.124C105.752 139.423 115.058 122.491 126.067 116.136C129.815 113.981 133.176 113.421 135.308 114.671C137.829 116.114 139.315 120.207 139.315 125.614V150.69L120.81 161.461L105.731 170.078L105.752 153.124Z" fill="#263238"/>
<path d="M178.588 161.892C178.486 160.795 178.092 159.746 177.448 158.852C176.805 157.958 175.934 157.253 174.926 156.808L167.752 152.651C165.021 151.255 161.997 150.527 158.93 150.527C155.863 150.527 152.84 151.255 150.109 152.651L84.9855 190.242C83.9771 190.692 83.1066 191.402 82.4631 192.299C81.8195 193.196 81.4261 194.249 81.3232 195.348V281.367C81.4195 282.469 81.8103 283.524 82.4546 284.422C83.099 285.32 83.9731 286.029 84.9855 286.473L92.1591 290.631C94.8949 292.011 97.9165 292.73 100.981 292.73C104.045 292.73 107.067 292.011 109.802 290.631L174.926 253.017C175.932 252.571 176.802 251.865 177.446 250.972C178.089 250.078 178.484 249.029 178.588 247.933V161.892Z" fill="#BA68C8"/>
<path opacity="0.4" d="M92.1587 204.697L84.985 200.389C80.0948 197.588 80.0948 193.021 84.985 190.199L150.108 152.608C152.839 151.212 155.863 150.484 158.93 150.484C161.997 150.484 165.02 151.212 167.751 152.608L174.925 156.765C179.794 159.566 179.794 164.133 174.925 166.933L109.91 204.697C107.16 206.096 104.119 206.824 101.034 206.824C97.9495 206.824 94.9084 206.096 92.1587 204.697Z" fill="white"/>
<path opacity="0.1" d="M100.992 206.701V292.72C97.912 292.767 94.8716 292.025 92.1591 290.566L84.9639 286.559C83.9513 286.112 83.0783 285.4 82.4374 284.497C81.7965 283.595 81.4115 282.536 81.3232 281.432V195.348C81.4212 196.443 81.8105 197.492 82.4507 198.386C83.0909 199.28 83.9586 199.987 84.9639 200.432L92.1591 204.59C94.8722 206.043 97.9147 206.77 100.992 206.701Z" fill="black"/>
<path d="M148.384 249.247L132.831 258.23L135.244 230.096C133.391 229.105 132.206 226.692 132.206 223.224C132.206 217.02 135.954 209.824 140.608 207.153C145.261 204.482 149.009 207.304 149.009 213.616C148.914 217.282 147.867 220.86 145.972 223.999L148.384 249.247Z" fill="#455A64"/>
<path d="M148.385 249.247L134.296 241.126L132.831 258.231L148.385 249.247Z" fill="#37474F"/>
<path d="M140.608 207.153C137.222 209.438 134.697 212.79 133.435 216.675L145.972 223.914C147.868 220.774 148.914 217.196 149.01 213.53C149.01 207.304 145.261 204.461 140.608 207.153Z" fill="#37474F"/>
<path d="M160.987 163.766V129.298C160.987 118.527 156.959 110.212 149.936 106.162C142.913 102.112 134.856 102.823 126.605 107.627C111.267 116.481 99.2676 138.088 99.2676 156.808V191.384C99.3302 192.016 99.5639 192.618 99.9435 193.127C100.323 193.635 100.834 194.031 101.422 194.271C102.962 195.046 104.663 195.449 106.387 195.449C108.112 195.449 109.812 195.046 111.353 194.271C111.941 194.031 112.452 193.635 112.831 193.127C113.211 192.618 113.445 192.016 113.507 191.384V156.916C113.507 143.215 122.814 126.282 133.822 119.927C137.57 117.773 140.952 117.235 143.085 118.463C145.584 119.906 147.092 123.999 147.092 129.406V163.874C147.16 164.499 147.396 165.093 147.776 165.594C148.155 166.095 148.663 166.483 149.246 166.718C150.787 167.493 152.487 167.896 154.212 167.896C155.936 167.896 157.637 167.493 159.177 166.718C159.755 166.476 160.259 166.085 160.637 165.586C161.015 165.086 161.255 164.496 161.332 163.874L160.987 163.766Z" fill="#E0E0E0"/>
<path d="M244.701 315.016L254.18 309.545L257.928 304.978L248.45 310.449L244.701 315.016Z" fill="#BA68C8"/>
<path opacity="0.4" d="M244.701 315.016L254.18 309.545L257.928 304.978L248.45 310.449L244.701 315.016Z" fill="black"/>
<path d="M270.487 329.902L279.966 324.43L287.894 317.407L278.415 322.879L270.487 329.902Z" fill="#BA68C8"/>
<path opacity="0.4" d="M270.487 329.902L279.966 324.43L287.894 317.407L278.415 322.879L270.487 329.902Z" fill="black"/>
<path d="M351.186 348.817C353.429 351.823 354.787 355.398 355.107 359.135C352.881 356.119 351.525 352.55 351.186 348.817ZM373.224 349.097C370.036 327.382 358.381 306.011 344.465 297.868C337.787 294.012 331.539 293.883 326.671 296.77L317.752 301.918L317.235 302.22C316.837 302.436 316.455 302.681 316.093 302.952C315.33 303.452 314.61 304.014 313.939 304.633L313.637 304.913C313.357 305.193 313.077 305.516 312.819 305.818C312.56 306.119 312.151 306.593 311.871 306.981C311.228 307.829 310.644 308.722 310.126 309.652C309.867 310.126 309.587 310.622 309.35 311.139L231.388 266.136L221.909 271.586V277.64L222.728 278.092L223.482 278.545V279.816L221.909 280.721V284.232L233.37 308.467L244.701 314.93L248.45 310.363L258.445 316.352L264.176 326.175L270.509 329.816L278.415 322.793L288.131 328.416L291.405 341.88L307.692 351.294C308.519 354.726 309.548 358.107 310.772 361.419L311.138 362.474C316.567 376.693 325.184 388.886 334.835 394.508C336.01 395.182 337.234 395.765 338.497 396.253C339.167 396.518 339.85 396.748 340.544 396.943C341.14 397.11 341.744 397.246 342.354 397.352C344.262 397.708 346.219 397.708 348.127 397.352L348.924 397.158C349.302 397.093 349.67 396.985 350.023 396.835L350.863 396.512C351.167 396.398 351.462 396.261 351.746 396.102L352.543 395.693L352.952 395.456L353.146 395.348L362.087 390.2C369.282 386.02 373.956 375.465 373.956 360.536C373.964 356.685 373.683 352.84 373.116 349.032L373.224 349.097Z" fill="#BA68C8"/>
<path d="M348.299 367.128C344.572 364.973 341.535 358.511 341.535 352.802C341.535 347.093 344.572 344.185 348.299 346.339C352.026 348.493 355.085 354.956 355.085 360.686C355.085 366.417 352.048 369.282 348.299 367.128ZM363.659 354.568C360.471 332.853 348.795 311.376 334.878 303.34C328.415 299.635 322.491 299.355 317.644 301.918L317.127 302.22C316.729 302.436 316.348 302.681 315.985 302.952C315.222 303.452 314.502 304.014 313.831 304.633L313.53 304.913C313.25 305.193 312.97 305.516 312.711 305.818C312.452 306.119 312.043 306.593 311.763 306.981C311.12 307.829 310.537 308.722 310.018 309.652C309.76 310.126 309.48 310.622 309.243 311.139C307.844 314.069 306.83 317.168 306.227 320.359L221.931 271.586V277.64L222.749 278.092L223.503 278.545V279.816L221.931 280.721V284.232L233.391 308.467L244.723 314.93L248.471 310.363L258.467 316.352L264.197 326.175L270.531 329.816L278.437 322.793L288.152 328.416L291.427 341.88L307.713 351.294C308.541 354.726 309.569 358.107 310.794 361.419L311.16 362.474C316.589 376.693 325.206 388.886 334.857 394.508C336.031 395.182 337.256 395.765 338.519 396.253C339.189 396.518 339.872 396.748 340.565 396.943C341.161 397.11 341.765 397.246 342.375 397.352C344.283 397.708 346.24 397.708 348.148 397.352L348.946 397.158C349.323 397.093 349.692 396.985 350.044 396.835L350.884 396.512C351.189 396.398 351.484 396.261 351.768 396.102L352.565 395.693L352.974 395.456L353.168 395.348C360.062 391.04 364.499 380.592 364.499 366.007C364.493 362.179 364.212 358.356 363.659 354.568Z" fill="#BA68C8"/>
<path opacity="0.4" d="M355.085 360.6C355.085 366.374 352.048 369.217 348.321 367.063C344.594 364.909 341.535 358.446 341.535 352.737C341.535 347.029 344.573 344.12 348.321 346.275C349.434 346.926 350.407 347.789 351.186 348.817C351.516 352.552 352.873 356.124 355.107 359.135C355.131 359.624 355.124 360.113 355.085 360.6Z" fill="black"/>
<path opacity="0.4" d="M374 360.6C374 375.529 369.325 386.085 362.13 390.264L353.19 395.413C360.083 391.105 364.521 380.656 364.521 366.072C364.51 362.222 364.222 358.377 363.659 354.568C360.471 332.854 348.795 311.376 334.879 303.34C328.416 299.635 322.492 299.355 317.645 301.918L326.563 296.77C331.518 293.883 337.679 294.012 344.357 297.868C358.274 305.947 369.928 327.489 373.117 349.032C373.701 352.86 373.997 356.728 374 360.6Z" fill="white"/>
<path d="M364.521 366.072C364.521 380.657 360.083 391.062 353.189 395.413L362.13 390.265C369.325 386.086 374 375.53 374 360.601C374 360.041 374 359.48 374 358.942L364.542 364.414C364.499 364.952 364.521 365.512 364.521 366.072Z" fill="#BA68C8"/>
<path opacity="0.1" d="M364.521 366.072C364.521 380.657 360.083 391.062 353.189 395.413L362.13 390.265C369.325 386.086 374 375.53 374 360.601C374 360.041 374 359.48 374 358.942L364.542 364.414C364.499 364.952 364.521 365.512 364.521 366.072Z" fill="black"/>
<path opacity="0.15" d="M306.679 326.563V329.644L221.909 280.721L223.482 279.816V278.523L306.679 326.563Z" fill="black"/>
<path opacity="0.15" d="M306.679 327.855V329.643L221.909 280.72L223.482 279.816V279.794L306.679 327.855Z" fill="black"/>
<path opacity="0.15" d="M343.56 390.35C340.35 390.262 337.221 389.326 334.491 387.636C320.66 379.644 309.415 355.904 309.415 334.706C309.415 322.341 313.163 313.164 319.691 309.329C324.258 306.701 329.644 307.024 335.288 310.277C349.096 318.269 360.342 342.009 360.342 363.207C360.342 375.572 356.593 384.749 350.066 388.584C348.095 389.747 345.848 390.357 343.56 390.35ZM326.326 309.157C324.314 309.153 322.338 309.68 320.596 310.686C314.65 314.111 311.117 323.095 311.117 334.706C311.117 355.409 321.888 378.524 335.395 386.257C340.523 389.23 345.348 389.553 349.398 387.227C355.344 383.802 358.877 374.818 358.877 363.207C358.877 342.504 348.105 319.368 334.598 311.656C332.077 310.092 329.184 309.229 326.218 309.157H326.326Z" fill="black"/>
<path opacity="0.5" d="M309.35 311.139C307.952 314.069 306.938 317.168 306.334 320.359L221.931 271.586L231.409 266.136L309.35 311.139Z" fill="white"/>
</svg>
