<?xml version="1.0" standalone="no"?>
<!DOCTYPE svg PUBLIC "-//W3C//DTD SVG 20010904//EN"
 "http://www.w3.org/TR/2001/REC-SVG-20010904/DTD/svg10.dtd">
<svg version="1.0" xmlns="http://www.w3.org/2000/svg"
 width="469.000000pt" height="500.000000pt" viewBox="0 0 469.000000 500.000000"
 preserveAspectRatio="xMidYMid meet">

<g transform="translate(0.000000,500.000000) scale(0.100000,-0.100000)"
fill="#BA68C8" stroke="none">
<path d="M1480 2746 l0 -674 83 5 c45 3 84 10 87 14 5 7 6 1298 1 1322 0 4
-39 7 -86 7 l-85 0 0 -674z"/>
<path d="M3120 3288 c-6 -373 -2 -652 8 -656 36 -12 132 145 152 247 30 158
-15 331 -107 411 -43 38 -53 38 -53 -2z"/>
<path d="M2814 2838 l-19 -23 23 19 c21 18 27 26 19 26 -2 0 -12 -10 -23 -22z"/>
<path d="M1540 2006 c0 -14 3 -27 8 -30 14 -8 82 19 78 31 -4 9 16 13 67 16
54 2 45 4 -40 5 l-113 2 0 -24z"/>
<path d="M2330 2021 c25 -3 44 -10 42 -16 -4 -13 60 -26 72 -15 5 5 6 16 3 24
-5 13 -22 16 -84 14 -65 -1 -70 -2 -33 -7z"/>
<path d="M1607 1953 c-4 -3 -7 -15 -7 -25 0 -14 8 -18 40 -18 29 0 40 4 40 15
0 8 6 16 13 16 6 1 62 5 122 9 l110 7 -156 1 c-86 1 -159 -1 -162 -5z"/>
<path d="M2235 1950 c11 -5 32 -9 46 -9 15 -1 29 -8 33 -16 3 -9 18 -15 36
-15 25 0 30 4 30 25 0 25 -1 25 -82 24 -56 0 -76 -3 -63 -9z"/>
<path d="M1630 1848 c-22 -24 -27 -77 -8 -96 20 -20 58 -15 58 8 0 11 5 20 12
20 7 0 5 7 -5 18 -10 11 -13 27 -10 45 7 34 -17 37 -47 5z"/>
<path d="M1737 1849 c7 -7 15 -10 18 -7 3 3 -2 9 -12 12 -14 6 -15 5 -6 -5z"/>
<path d="M2283 1850 c-24 -10 -32 -22 -10 -16 55 17 65 16 65 -9 0 -14 -4 -28
-9 -31 -5 -3 -9 -10 -9 -15 0 -6 5 -7 12 -3 8 5 9 2 5 -10 -9 -22 15 -31 42
-16 31 16 28 63 -5 89 -28 22 -55 25 -91 11z"/>
<path d="M2213 1804 l-28 -25 33 22 c17 13 32 24 32 26 0 8 -11 1 -37 -23z"/>
<path d="M2170 1759 c0 -5 5 -7 10 -4 6 3 10 8 10 11 0 2 -4 4 -10 4 -5 0 -10
-5 -10 -11z"/>
<path d="M1975 1649 c-11 -17 -2 -18 19 -3 17 12 17 14 4 14 -9 0 -20 -5 -23
-11z"/>
<path d="M2196 1638 c-16 -23 -15 -35 3 -23 6 3 11 13 11 21 0 22 30 16 40 -8
9 -23 9 -23 9 -2 1 20 -16 34 -39 34 -5 0 -16 -10 -24 -22z"/>
<path d="M2021 1624 c0 -11 3 -14 6 -6 3 7 2 16 -1 19 -3 4 -6 -2 -5 -13z"/>
<path d="M1740 1551 c0 -25 15 -34 41 -26 12 4 18 12 15 21 -5 12 29 14 209
14 177 0 215 -2 215 -14 0 -16 27 -29 41 -20 5 3 9 14 9 25 0 18 -9 19 -265
19 -256 0 -265 -1 -265 -19z"/>
<path d="M1770 1476 c0 -2 7 -7 16 -10 8 -3 12 -2 9 4 -6 10 -25 14 -25 6z"/>
<path d="M2210 1469 c0 -5 5 -7 10 -4 6 3 10 8 10 11 0 2 -4 4 -10 4 -5 0 -10
-5 -10 -11z"/>
<path d="M1763 1425 c0 -22 2 -30 4 -17 2 12 2 30 0 40 -3 9 -5 -1 -4 -23z"/>
<path d="M1872 1440 c0 -14 2 -19 5 -12 2 6 2 18 0 25 -3 6 -5 1 -5 -13z"/>
<path d="M1984 1235 c0 -126 2 -177 3 -112 2 65 2 168 0 230 -1 62 -3 9 -3
-118z"/>
<path d="M2104 1365 c0 -55 1 -76 3 -47 2 29 2 74 0 100 -2 26 -3 2 -3 -53z"/>
<path d="M2103 1090 c0 -30 2 -43 4 -27 2 15 2 39 0 55 -2 15 -4 2 -4 -28z"/>
</g>
</svg>
