<svg width="898" height="810" viewBox="0 0 898 810" fill="none" xmlns="http://www.w3.org/2000/svg">
<circle cx="185.5" cy="550.5" r="259.5" fill="url(#paint0_linear_369_2489)"/>
<circle cx="559.5" cy="155.5" r="155.5" fill="#E84671"/>
<circle cx="779.5" cy="525.5" r="59.5" fill="#350E54"/>
<g filter="url(#filter0_bd_369_2489)">
<rect x="125" y="141" width="739" height="414" rx="24" fill="url(#paint1_linear_369_2489)" shape-rendering="crispEdges"/>
<rect x="125.5" y="141.5" width="738" height="413" rx="23.5" stroke="url(#paint2_linear_369_2489)" shape-rendering="crispEdges"/>
</g>
<path d="M289.857 427.532C289.911 429.402 290.405 431.234 291.298 432.879C292.19 434.524 293.457 435.936 294.996 437.001L446.527 533.671C448.211 534.618 450.093 535.156 452.023 535.242C453.953 535.327 455.875 534.958 457.636 534.163L694.001 411.322C695.714 410.508 697.172 409.243 698.22 407.662C699.269 406.082 699.867 404.245 699.951 402.351C700.035 400.456 699.601 398.574 698.697 396.907C697.793 395.24 696.451 393.851 694.817 392.888L543.288 296.181C541.607 295.229 539.723 294.688 537.793 294.602C535.862 294.517 533.939 294.889 532.179 295.689L295.813 418.566C294.186 419.488 292.799 420.78 291.765 422.338C290.73 423.895 290.076 425.675 289.857 427.532Z" fill="#37474F"/>
<path d="M452.611 523.195L452.079 535.204C450.145 535.162 448.254 534.623 446.589 533.638L294.997 437C293.41 436.071 292.097 434.737 291.193 433.135C290.289 431.534 289.825 429.721 289.849 427.882C289.873 426.043 290.384 424.243 291.33 422.666C292.275 421.088 293.622 419.789 295.233 418.901C292.668 420.569 292.744 423.195 295.531 424.931L447.074 521.614C448.751 522.612 450.659 523.157 452.611 523.195Z" fill="#263238"/>
<path d="M285.043 418.306C283.544 417.186 282.331 415.73 281.5 414.054C280.669 412.378 280.244 410.53 280.26 408.66L288.482 223.056C288.673 221.136 289.313 219.288 290.351 217.662C291.389 216.036 292.795 214.676 294.456 213.695L530.821 90.8536C532.519 90.0451 534.383 89.6485 536.263 89.6963C538.142 89.744 539.984 90.2346 541.639 91.1283C543.135 92.2497 544.347 93.7066 545.178 95.3819C546.009 97.0572 546.435 98.9041 546.421 100.774L538.201 286.33C538.011 288.25 537.372 290.098 536.334 291.725C535.296 293.351 533.889 294.71 532.227 295.691L295.813 418.566C294.123 419.37 292.268 419.765 290.397 419.72C288.526 419.675 286.692 419.19 285.043 418.306Z" fill="#455A64"/>
<path d="M295.15 418.874C293.523 419.516 291.777 419.796 290.031 419.693C288.286 419.591 286.584 419.11 285.044 418.282C283.546 417.163 282.332 415.706 281.501 414.03C280.67 412.354 280.245 410.507 280.261 408.636L288.483 223.057C288.629 221.127 289.276 219.269 290.358 217.665L300.492 224.13C299.425 225.737 298.784 227.588 298.629 229.51L290.407 415.114C290.261 418.393 292.334 419.965 295.15 418.874Z" fill="#263238"/>
<path d="M298.628 229.535L290.406 415.114C290.247 418.717 292.672 420.196 295.813 418.567L532.179 295.69C533.841 294.709 535.247 293.35 536.285 291.723C537.323 290.096 537.963 288.248 538.153 286.328L546.373 100.772C546.53 97.2414 544.12 95.6907 540.966 97.3319L304.602 220.161C302.941 221.145 301.535 222.507 300.497 224.135C299.459 225.763 298.819 227.613 298.628 229.535Z" fill="#37474F"/>
<path d="M295.529 424.967L447.06 521.65C448.743 522.597 450.626 523.135 452.555 523.22C454.485 523.306 456.408 522.937 458.168 522.142L694.533 399.301C697.674 397.659 697.801 394.789 694.817 392.888L543.288 296.181C541.606 295.229 539.723 294.688 537.792 294.602C535.862 294.517 533.938 294.889 532.179 295.689L295.813 418.566C292.672 420.196 292.545 423.066 295.529 424.967Z" fill="#455A64"/>
<path d="M307.277 227.426L535.807 108.678C537.692 107.703 539.155 108.634 539.06 110.76L531.475 281.976C531.36 283.129 530.974 284.239 530.35 285.214C529.726 286.19 528.88 287.005 527.881 287.593L299.351 406.341C297.467 407.316 296.004 406.385 296.098 404.259L303.683 233.043C303.798 231.89 304.184 230.781 304.808 229.805C305.433 228.829 306.279 228.014 307.277 227.426Z" fill="#BA68C8"/>
<path opacity="0.4" d="M307.277 227.426L535.807 108.678C537.692 107.703 539.155 108.634 539.06 110.76L531.475 281.976C531.36 283.129 530.974 284.239 530.35 285.214C529.726 286.19 528.88 287.005 527.881 287.593L299.351 406.341C297.467 407.316 296.004 406.385 296.098 404.259L303.683 233.043C303.798 231.89 304.184 230.781 304.808 229.805C305.433 228.829 306.279 228.014 307.277 227.426Z" fill="black"/>
<path d="M313.792 420.963L534.502 306.273C535.38 305.872 536.341 305.686 537.305 305.728C538.27 305.771 539.21 306.042 540.05 306.519L549.892 312.79C551.378 313.747 551.314 315.176 549.75 315.997L329.016 430.674C328.138 431.075 327.177 431.261 326.213 431.219C325.248 431.176 324.308 430.905 323.468 430.428L313.65 424.17C312.164 423.213 312.227 421.784 313.792 420.963Z" fill="#37474F"/>
<path d="M339.162 437.152L559.861 322.449C560.739 322.049 561.7 321.862 562.665 321.905C563.629 321.947 564.57 322.218 565.409 322.695L625.956 361.319C627.454 362.276 627.39 363.717 625.814 364.526L405.351 479.083C404.469 479.479 403.507 479.664 402.541 479.621C401.576 479.578 400.633 479.31 399.79 478.836L339.033 440.347C337.535 439.402 337.586 437.961 339.162 437.152Z" fill="#263238"/>
<path d="M531.412 374.121L538.358 370.507C538.654 370.351 538.678 370.088 538.385 369.906L531.459 365.448C531.301 365.364 531.127 365.316 530.948 365.308C530.769 365.3 530.591 365.332 530.426 365.402L523.468 369.017C523.184 369.172 523.16 369.436 523.442 369.605L530.464 374.055C530.609 374.13 530.768 374.175 530.931 374.186C531.094 374.197 531.258 374.175 531.412 374.121ZM520.442 359.076L513.496 362.691C513.434 362.71 513.38 362.747 513.34 362.798C513.301 362.849 513.278 362.911 513.275 362.976C513.272 363.04 513.289 363.104 513.324 363.158C513.359 363.213 513.41 363.255 513.47 363.279L520.492 367.73C520.65 367.814 520.825 367.861 521.004 367.869C521.182 367.877 521.36 367.845 521.525 367.775L528.484 364.161C528.55 364.145 528.609 364.108 528.652 364.056C528.696 364.004 528.721 363.939 528.724 363.871C528.727 363.803 528.707 363.736 528.669 363.68C528.63 363.624 528.575 363.582 528.51 363.56L521.488 359.11C521.33 359.03 521.157 358.985 520.981 358.98C520.804 358.974 520.629 359.007 520.467 359.077L520.442 359.076ZM497.99 370.74L486.24 376.849C485.944 377.005 485.92 377.28 486.213 377.45L493.236 381.9C493.394 381.984 493.568 382.032 493.747 382.04C493.926 382.048 494.104 382.016 494.269 381.946L506.031 375.837C506.326 375.682 506.338 375.417 506.057 375.236L499.034 370.798C498.881 370.708 498.708 370.656 498.531 370.646C498.353 370.636 498.176 370.669 498.014 370.741L497.99 370.74ZM510.306 364.354L503.347 367.969C503.051 368.124 503.04 368.388 503.321 368.557L510.343 373.008C510.501 373.092 510.676 373.139 510.855 373.147C511.033 373.155 511.211 373.123 511.376 373.053L518.323 369.438C518.619 369.283 518.63 369.019 518.349 368.838L511.327 364.388C511.173 364.304 511.001 364.258 510.826 364.252C510.651 364.247 510.477 364.282 510.318 364.355L510.306 364.354ZM483.085 378.526L476.139 382.129C475.843 382.285 475.831 382.561 476.112 382.73L483.135 387.18C483.293 387.264 483.467 387.312 483.646 387.32C483.825 387.328 484.003 387.296 484.168 387.226L491.114 383.623C491.41 383.468 491.421 383.204 491.14 383.023L484.118 378.572C483.96 378.488 483.785 378.441 483.607 378.433C483.428 378.425 483.25 378.457 483.085 378.526ZM472.936 383.805L465.978 387.419C465.916 387.438 465.861 387.475 465.822 387.526C465.782 387.577 465.76 387.639 465.757 387.704C465.754 387.768 465.771 387.832 465.806 387.887C465.841 387.941 465.892 387.983 465.951 388.007L472.842 392.452C472.998 392.542 473.173 392.593 473.353 392.601C473.533 392.609 473.712 392.574 473.875 392.498L480.821 388.895C481.117 388.739 481.128 388.475 480.847 388.294L473.885 383.847C473.733 383.77 473.567 383.727 473.397 383.719C473.227 383.712 473.058 383.74 472.9 383.803L472.936 383.805ZM500.269 401.861L507.216 398.246C507.511 398.091 507.523 397.827 507.242 397.658L500.279 393.21C500.121 393.126 499.947 393.079 499.768 393.071C499.589 393.063 499.411 393.095 499.247 393.164L492.288 396.779C492.222 396.795 492.163 396.831 492.119 396.884C492.076 396.936 492.051 397.001 492.048 397.069C492.045 397.137 492.064 397.204 492.103 397.26C492.141 397.316 492.197 397.358 492.261 397.379L499.224 401.827C499.38 401.905 499.551 401.949 499.725 401.955C499.899 401.96 500.073 401.928 500.233 401.86L500.269 401.861ZM490.108 407.139L497.067 403.524C497.363 403.369 497.374 403.105 497.093 402.936L490.093 398.511C489.935 398.427 489.761 398.379 489.582 398.371C489.403 398.363 489.225 398.395 489.061 398.465L482.114 402.08C481.818 402.235 481.807 402.499 482.087 402.68L489.05 407.128C489.209 407.205 489.383 407.245 489.56 407.247C489.737 407.248 489.912 407.211 490.072 407.137L490.108 407.139ZM479.959 412.417L486.906 408.802C486.968 408.783 487.022 408.746 487.062 408.695C487.101 408.643 487.124 408.581 487.127 408.517C487.13 408.452 487.112 408.389 487.078 408.334C487.043 408.28 486.992 408.238 486.932 408.214L479.909 403.763C479.754 403.673 479.579 403.622 479.399 403.614C479.219 403.606 479.04 403.641 478.877 403.717L471.954 407.333C471.658 407.489 471.647 407.753 471.927 407.934L478.95 412.384C479.101 412.457 479.266 412.497 479.433 412.503C479.601 412.508 479.768 412.478 479.923 412.415L479.959 412.417ZM469.798 417.694L476.745 414.079C477.04 413.936 477.064 413.66 476.771 413.491L469.749 409.041C469.591 408.957 469.416 408.909 469.237 408.901C469.059 408.893 468.88 408.925 468.716 408.995L461.77 412.598C461.474 412.753 461.45 413.017 461.743 413.198L468.706 417.646C468.866 417.734 469.045 417.784 469.229 417.792C469.412 417.8 469.594 417.766 469.762 417.693L469.798 417.694ZM521.273 379.436L528.232 375.822C528.298 375.806 528.357 375.769 528.4 375.717C528.444 375.664 528.469 375.599 528.472 375.531C528.475 375.464 528.456 375.397 528.417 375.341C528.379 375.285 528.323 375.243 528.259 375.221L521.235 370.783C521.08 370.693 520.904 370.641 520.725 370.633C520.545 370.625 520.366 370.661 520.203 370.737L513.356 374.272C513.06 374.428 513.048 374.692 513.33 374.861L520.292 379.308C520.437 379.398 520.6 379.456 520.769 379.478C520.938 379.5 521.11 379.486 521.273 379.436ZM510.392 396.618L525.887 388.557C526.183 388.401 526.194 388.137 525.913 387.968L508.992 377.171C508.834 377.087 508.659 377.04 508.481 377.032C508.302 377.024 508.124 377.056 507.959 377.126L499.941 381.295C499.645 381.45 499.633 381.714 499.914 381.895L508.878 387.611C508.938 387.635 508.989 387.677 509.024 387.732C509.059 387.786 509.076 387.85 509.073 387.914C509.07 387.979 509.047 388.041 509.008 388.092C508.968 388.143 508.914 388.18 508.852 388.199L502.436 391.525C502.14 391.68 502.128 391.944 502.409 392.125L509.432 396.564C509.581 396.638 509.745 396.679 509.911 396.682C510.077 396.685 510.242 396.651 510.394 396.582L510.392 396.618ZM462.738 389.116L455.791 392.731C455.729 392.75 455.675 392.788 455.635 392.839C455.596 392.89 455.573 392.952 455.57 393.016C455.567 393.081 455.585 393.145 455.619 393.199C455.654 393.253 455.705 393.296 455.765 393.32L462.727 397.768C462.885 397.852 463.06 397.899 463.239 397.907C463.417 397.915 463.596 397.883 463.76 397.813L470.719 394.199C470.785 394.183 470.844 394.146 470.887 394.094C470.931 394.042 470.956 393.977 470.959 393.909C470.962 393.841 470.943 393.774 470.904 393.718C470.866 393.662 470.81 393.62 470.746 393.598L463.783 389.151C463.626 389.061 463.45 389.008 463.269 388.996C463.088 388.984 462.907 389.013 462.739 389.08L462.738 389.116ZM452.589 394.394L445.63 398.009C445.334 398.164 445.323 398.428 445.604 398.597L452.627 403.048C452.784 403.132 452.959 403.179 453.138 403.187C453.316 403.195 453.495 403.163 453.659 403.094L460.606 399.479C460.902 399.323 460.913 399.059 460.633 398.878L453.61 394.428C453.458 394.337 453.286 394.283 453.109 394.271C452.931 394.259 452.754 394.289 452.59 394.358L452.589 394.394ZM397.64 454.579C397.798 454.663 397.972 454.711 398.151 454.719C398.33 454.727 398.508 454.695 398.673 454.625L405.619 451.01C405.915 450.855 405.939 450.591 405.646 450.41L398.623 445.971C398.467 445.881 398.292 445.83 398.112 445.822C397.932 445.814 397.753 445.849 397.59 445.925L390.643 449.54C390.348 449.696 390.324 449.959 390.617 450.129L397.64 454.579ZM371.34 436.568L364.393 440.171C364.098 440.326 364.074 440.59 364.367 440.772L371.329 445.219C371.487 445.303 371.662 445.351 371.841 445.359C372.019 445.367 372.197 445.335 372.362 445.265L379.309 441.65C379.604 441.507 379.628 441.231 379.335 441.062L372.312 436.611C372.164 436.531 371.999 436.486 371.831 436.478C371.662 436.471 371.495 436.501 371.34 436.568ZM385.021 449.616C385.176 449.706 385.352 449.758 385.531 449.766C385.711 449.774 385.89 449.738 386.053 449.662L393 446.047C393.296 445.892 393.307 445.627 393.026 445.459L386.004 441.008C385.848 440.918 385.673 440.867 385.493 440.859C385.313 440.851 385.134 440.886 384.971 440.962L378.024 444.577C377.728 444.733 377.717 444.997 377.997 445.178L385.021 449.616ZM413.977 458.191L420.923 454.576C420.985 454.557 421.04 454.519 421.079 454.468C421.119 454.417 421.141 454.355 421.144 454.291C421.147 454.226 421.13 454.163 421.095 454.108C421.06 454.054 421.009 454.012 420.95 453.987L413.927 449.537C413.769 449.453 413.594 449.405 413.416 449.397C413.237 449.39 413.059 449.422 412.894 449.491L405.948 453.094C405.652 453.25 405.641 453.514 405.921 453.695L412.944 458.145C413.1 458.233 413.273 458.285 413.452 458.297C413.63 458.309 413.809 458.281 413.976 458.215L413.977 458.191ZM402.783 463.435C402.94 463.519 403.115 463.566 403.294 463.574C403.472 463.582 403.651 463.55 403.815 463.48L410.762 459.865C411.057 459.722 411.081 459.446 410.788 459.277L403.897 454.856C403.739 454.772 403.564 454.725 403.385 454.717C403.207 454.709 403.028 454.741 402.864 454.811L395.918 458.414C395.622 458.569 395.598 458.833 395.891 459.014L402.783 463.435ZM381.501 431.279L374.542 434.893C374.476 434.909 374.417 434.946 374.374 434.998C374.331 435.05 374.306 435.115 374.303 435.183C374.3 435.251 374.319 435.318 374.357 435.374C374.396 435.43 374.451 435.472 374.516 435.494L381.478 439.941C381.636 440.025 381.811 440.073 381.99 440.081C382.168 440.089 382.346 440.057 382.511 439.987L389.458 436.372C389.753 436.217 389.765 435.952 389.484 435.784L382.461 431.333C382.313 431.258 382.15 431.216 381.984 431.211C381.818 431.205 381.653 431.237 381.5 431.303L381.501 431.279ZM432.27 404.889L425.323 408.504C425.027 408.66 425.016 408.924 425.297 409.093L432.319 413.543C432.475 413.634 432.65 413.685 432.83 413.693C433.01 413.701 433.189 413.665 433.352 413.589L440.299 409.974C440.595 409.819 440.606 409.555 440.326 409.374L433.302 404.935C433.145 404.849 432.968 404.801 432.788 404.798C432.608 404.794 432.43 404.834 432.269 404.913L432.27 404.889ZM391.628 425.951L384.681 429.566C384.386 429.722 384.374 429.986 384.655 430.167L391.618 434.603C391.774 434.693 391.949 434.744 392.129 434.752C392.308 434.76 392.488 434.724 392.651 434.648L399.609 431.034C399.905 430.879 399.917 430.614 399.635 430.445L392.673 425.998C392.511 425.927 392.335 425.892 392.158 425.897C391.981 425.901 391.807 425.945 391.649 426.025L391.628 425.951ZM442.441 399.637L435.48 403.311C435.184 403.466 435.161 403.73 435.454 403.899L442.417 408.347C442.572 408.437 442.748 408.489 442.927 408.497C443.107 408.505 443.286 408.469 443.449 408.393L450.396 404.778C450.692 404.623 450.715 404.359 450.423 404.178L443.4 399.739C443.258 399.652 443.098 399.597 442.932 399.579C442.766 399.562 442.599 399.581 442.441 399.637ZM422.132 410.192L415.185 413.807C414.889 413.962 414.866 414.226 415.158 414.408L422.181 418.846C422.337 418.936 422.512 418.987 422.692 418.995C422.872 419.003 423.051 418.968 423.214 418.892L430.161 415.277C430.457 415.121 430.48 414.858 430.188 414.676L423.224 410.24C423.06 410.137 422.872 410.078 422.679 410.07C422.485 410.061 422.292 410.103 422.12 410.192L422.132 410.192ZM411.957 415.505L405.01 419.12C404.715 419.275 404.703 419.54 404.984 419.721L412.007 424.159C412.163 424.249 412.338 424.3 412.518 424.308C412.698 424.316 412.877 424.281 413.04 424.205L419.986 420.59C420.282 420.434 420.294 420.17 420.012 420.001L412.99 415.551C412.834 415.461 412.659 415.409 412.479 415.401C412.299 415.393 412.12 415.429 411.957 415.505ZM401.798 420.747L394.863 424.374C394.567 424.529 394.543 424.793 394.836 424.975L401.799 429.41C401.955 429.5 402.13 429.552 402.31 429.56C402.49 429.568 402.669 429.532 402.832 429.456L409.779 425.841C410.074 425.686 410.098 425.422 409.805 425.253L402.842 420.805C402.684 420.717 402.507 420.666 402.327 420.656C402.146 420.646 401.965 420.677 401.798 420.747ZM449.441 428.248L456.387 424.645C456.682 424.49 456.706 424.226 456.413 424.044L449.476 419.574C449.318 419.49 449.143 419.442 448.965 419.434C448.786 419.426 448.608 419.458 448.443 419.528L441.497 423.131C441.201 423.286 441.178 423.55 441.47 423.731L448.493 428.182C448.64 428.258 448.801 428.304 448.966 428.315C449.131 428.327 449.297 428.304 449.453 428.248L449.441 428.248ZM542.907 347.412L535.961 351.015C535.665 351.171 535.642 351.434 535.934 351.616L542.897 356.064C543.055 356.148 543.229 356.195 543.408 356.203C543.587 356.211 543.765 356.179 543.93 356.109L550.876 352.494C551.172 352.351 551.196 352.075 550.902 351.906L543.94 347.458C543.786 347.37 543.613 347.32 543.435 347.312C543.257 347.304 543.081 347.339 542.919 347.413L542.907 347.412ZM530.591 353.798L523.729 357.416C523.667 357.435 523.613 357.473 523.573 357.524C523.534 357.575 523.511 357.637 523.508 357.701C523.505 357.766 523.522 357.83 523.557 357.884C523.592 357.938 523.643 357.981 523.703 358.005L530.665 362.453C530.823 362.537 530.998 362.584 531.176 362.592C531.355 362.6 531.533 362.568 531.698 362.498L538.644 358.895C538.94 358.74 538.952 358.476 538.671 358.295L531.648 353.845C531.492 353.763 531.319 353.716 531.143 353.708C530.966 353.7 530.79 353.731 530.627 353.799L530.591 353.798ZM553.033 342.121L546.086 345.736C545.79 345.892 545.778 346.156 546.059 346.337L553.082 350.787C553.24 350.871 553.414 350.919 553.593 350.927C553.772 350.935 553.95 350.903 554.115 350.833L561.061 347.218C561.357 347.063 561.369 346.798 561.087 346.629L554.065 342.179C553.912 342.099 553.745 342.052 553.573 342.043C553.401 342.033 553.229 342.06 553.069 342.123L553.033 342.121ZM497.762 391.631L504.709 388.016C504.771 387.997 504.825 387.959 504.865 387.908C504.904 387.857 504.927 387.795 504.93 387.731C504.933 387.666 504.915 387.602 504.881 387.548C504.846 387.494 504.795 387.452 504.735 387.427L497.712 382.977C497.555 382.893 497.38 382.845 497.201 382.837C497.023 382.829 496.844 382.861 496.68 382.931L489.721 386.546C489.655 386.561 489.596 386.598 489.552 386.651C489.509 386.703 489.484 386.768 489.481 386.836C489.478 386.904 489.497 386.971 489.536 387.027C489.574 387.083 489.63 387.124 489.694 387.146L496.657 391.594C496.825 391.688 497.013 391.74 497.205 391.747C497.397 391.753 497.589 391.713 497.762 391.631ZM564.262 336.903C564.104 336.819 563.929 336.771 563.751 336.764C563.572 336.756 563.394 336.788 563.229 336.857L556.282 340.472C555.987 340.628 555.963 340.891 556.256 341.073L563.218 345.521C563.376 345.605 563.551 345.652 563.729 345.66C563.908 345.668 564.086 345.636 564.251 345.566L571.198 341.951C571.493 341.796 571.517 341.532 571.224 341.363L564.262 336.903ZM459.613 422.983L466.559 419.38C466.855 419.225 466.867 418.948 466.586 418.779L459.563 414.329C459.405 414.245 459.231 414.197 459.052 414.189C458.873 414.182 458.695 414.214 458.53 414.283L451.584 417.886C451.288 418.042 451.277 418.306 451.558 418.487L458.58 422.937C458.739 423.019 458.914 423.065 459.093 423.071C459.272 423.077 459.45 423.043 459.613 422.971L459.613 422.983ZM584.145 358.252L591.104 354.637C591.165 354.619 591.22 354.581 591.259 354.53C591.299 354.479 591.321 354.417 591.324 354.352C591.327 354.288 591.31 354.224 591.275 354.17C591.24 354.115 591.189 354.073 591.13 354.049L584.107 349.599C583.949 349.515 583.775 349.467 583.596 349.459C583.417 349.451 583.239 349.483 583.074 349.553L576.128 353.156C575.832 353.311 575.821 353.575 576.102 353.756L583.124 358.207C583.28 358.292 583.453 358.34 583.631 358.345C583.808 358.351 583.985 358.315 584.145 358.24L584.145 358.252ZM564.037 357.181L570.996 353.566C571.058 353.547 571.112 353.51 571.152 353.459C571.191 353.408 571.214 353.346 571.217 353.281C571.22 353.217 571.202 353.153 571.168 353.099C571.133 353.044 571.082 353.002 571.022 352.978L564.06 348.53C563.902 348.446 563.727 348.398 563.548 348.39C563.37 348.382 563.191 348.415 563.027 348.484L556.08 352.099C555.784 352.255 555.761 352.518 556.053 352.7L563.016 357.147C563.174 357.226 563.348 357.268 563.525 357.272C563.701 357.276 563.876 357.24 564.038 357.169L564.037 357.181ZM574.207 343.276C574.053 343.189 573.88 343.139 573.702 343.131C573.525 343.124 573.348 343.158 573.187 343.231L566.228 346.845C566.162 346.861 566.103 346.898 566.059 346.95C566.016 347.002 565.991 347.068 565.988 347.135C565.985 347.203 566.004 347.27 566.043 347.326C566.081 347.382 566.137 347.424 566.201 347.446L573.164 351.893C573.322 351.977 573.496 352.025 573.675 352.033C573.854 352.041 574.032 352.009 574.197 351.939L581.143 348.324C581.205 348.305 581.259 348.268 581.299 348.217C581.338 348.166 581.361 348.104 581.364 348.039C581.367 347.975 581.35 347.911 581.315 347.857C581.28 347.802 581.229 347.76 581.169 347.736L574.207 343.276ZM576.35 342.168L593.271 352.965C593.429 353.049 593.604 353.096 593.783 353.104C593.961 353.112 594.139 353.08 594.304 353.01L601.251 349.395C601.546 349.252 601.57 348.976 601.277 348.807L584.356 338.01C584.198 337.926 584.023 337.878 583.845 337.87C583.666 337.862 583.488 337.894 583.323 337.964L576.376 341.579C576.095 341.687 576.083 341.951 576.35 342.168ZM552.866 353.762L545.92 357.365C545.624 357.52 545.612 357.784 545.893 357.965L552.916 362.416C553.074 362.5 553.248 362.547 553.427 362.555C553.606 362.563 553.784 362.531 553.948 362.461L560.895 358.858C561.19 358.703 561.202 358.427 560.921 358.258L553.899 353.807C553.741 353.724 553.566 353.676 553.387 353.668C553.209 353.66 553.031 353.692 552.866 353.762ZM476.406 393.488L469.46 397.091C469.164 397.247 469.152 397.511 469.433 397.692L476.456 402.142C476.614 402.226 476.788 402.274 476.967 402.282C477.146 402.29 477.324 402.258 477.488 402.188L484.435 398.585C484.73 398.43 484.743 398.153 484.461 397.984L477.439 393.534C477.281 393.45 477.106 393.402 476.927 393.394C476.749 393.387 476.571 393.419 476.406 393.488ZM572.939 363.483C573.097 363.567 573.272 363.615 573.45 363.623C573.629 363.631 573.807 363.599 573.972 363.529L580.918 359.926C581.214 359.771 581.226 359.494 580.945 359.325L573.982 354.878C573.824 354.794 573.65 354.746 573.471 354.738C573.292 354.73 573.114 354.762 572.949 354.832L565.991 358.434C565.925 358.45 565.866 358.487 565.823 358.539C565.779 358.592 565.754 358.657 565.751 358.725C565.748 358.792 565.768 358.859 565.806 358.915C565.845 358.971 565.9 359.013 565.965 359.035L572.939 363.483ZM486.567 388.211L479.621 391.814C479.325 391.969 479.313 392.233 479.594 392.414L486.557 396.862C486.714 396.946 486.889 396.994 487.068 397.002C487.246 397.009 487.425 396.977 487.589 396.908L494.548 393.293C494.61 393.274 494.664 393.237 494.704 393.186C494.743 393.135 494.766 393.073 494.769 393.008C494.772 392.944 494.754 392.88 494.72 392.826C494.685 392.771 494.634 392.729 494.574 392.705L487.552 388.254C487.405 388.176 487.242 388.132 487.076 388.125C486.91 388.117 486.744 388.147 486.591 388.212L486.567 388.211ZM407.752 449.324C407.909 449.408 408.084 449.455 408.263 449.463C408.441 449.471 408.62 449.439 408.784 449.369L415.731 445.754C416.027 445.599 416.038 445.335 415.758 445.154L408.735 440.704C408.58 440.616 408.407 440.567 408.23 440.559C408.053 440.551 407.876 440.585 407.714 440.658L400.756 444.273C400.46 444.428 400.448 444.692 400.73 444.861L407.752 449.324ZM395.119 435.708L388.172 439.323C387.876 439.479 387.852 439.742 388.146 439.912L395.168 444.362C395.324 444.452 395.499 444.504 395.679 444.512C395.859 444.52 396.038 444.484 396.201 444.408L403.148 440.793C403.444 440.638 403.467 440.374 403.174 440.192L396.151 435.754C396.004 435.676 395.842 435.632 395.676 435.624C395.51 435.617 395.344 435.647 395.191 435.712L395.119 435.708ZM418.91 444.078L425.868 440.476C425.934 440.46 425.993 440.423 426.036 440.371C426.08 440.319 426.105 440.254 426.108 440.186C426.111 440.118 426.092 440.051 426.053 439.995C426.015 439.939 425.959 439.897 425.895 439.875L418.932 435.428C418.774 435.344 418.599 435.296 418.421 435.288C418.242 435.28 418.064 435.312 417.899 435.382L410.953 438.997C410.891 439.016 410.836 439.053 410.797 439.104C410.757 439.155 410.735 439.217 410.732 439.282C410.729 439.346 410.746 439.41 410.781 439.465C410.816 439.519 410.867 439.561 410.926 439.585L417.889 444.033C418.052 444.134 418.238 444.192 418.429 444.2C418.62 444.209 418.811 444.168 418.982 444.081L418.91 444.078ZM429.071 438.801L436.017 435.198C436.312 435.042 436.336 434.779 436.043 434.597L429.081 430.15C428.923 430.066 428.748 430.018 428.57 430.01C428.391 430.002 428.213 430.034 428.048 430.104L421.089 433.718C421.028 433.737 420.973 433.775 420.934 433.826C420.894 433.877 420.872 433.939 420.869 434.003C420.866 434.068 420.883 434.132 420.918 434.186C420.953 434.24 421.004 434.282 421.063 434.307L428.026 438.755C428.191 438.86 428.382 438.92 428.578 438.929C428.774 438.938 428.969 438.894 429.143 438.804L429.071 438.801ZM439.232 433.523L446.178 429.92C446.473 429.765 446.485 429.501 446.204 429.32L439.182 424.869C439.024 424.785 438.849 424.738 438.671 424.73C438.492 424.722 438.314 424.754 438.149 424.824L431.337 428.396C431.041 428.552 431.029 428.828 431.31 428.997L438.332 433.447C438.477 433.533 438.638 433.588 438.805 433.608C438.972 433.628 439.141 433.612 439.302 433.562L439.232 433.523ZM405.267 430.43L398.321 434.045C398.025 434.201 398.013 434.465 398.295 434.634L405.317 439.084C405.473 439.174 405.648 439.226 405.828 439.234C406.008 439.242 406.187 439.206 406.35 439.13L413.297 435.515C413.592 435.36 413.604 435.095 413.323 434.914L406.3 430.476C406.153 430.398 405.991 430.354 405.825 430.346C405.658 430.339 405.493 430.369 405.34 430.433L405.267 430.43ZM415.428 425.153L408.482 428.768C408.186 428.923 408.162 429.187 408.456 429.356L415.418 433.804C415.576 433.888 415.751 433.936 415.929 433.944C416.108 433.951 416.286 433.919 416.451 433.85L423.41 430.235C423.693 430.079 423.717 429.816 423.436 429.635L416.413 425.196C416.272 425.126 416.118 425.086 415.961 425.079C415.804 425.072 415.647 425.098 415.5 425.156L415.428 425.153ZM456.07 404.091L449.124 407.694C448.828 407.849 448.816 408.125 449.097 408.294L456.12 412.745C456.278 412.829 456.452 412.876 456.631 412.884C456.81 412.892 456.988 412.86 457.153 412.79L464.099 409.187C464.394 409.032 464.406 408.768 464.125 408.587L457.103 404.137C456.955 404.053 456.791 404.001 456.621 403.985C456.452 403.969 456.281 403.99 456.12 404.045L456.07 404.091ZM445.921 409.369L438.974 412.984C438.679 413.127 438.655 413.403 438.948 413.572L445.971 418.023C446.127 418.113 446.302 418.164 446.482 418.172C446.661 418.18 446.84 418.144 447.004 418.068L453.95 414.465C454.245 414.31 454.269 414.046 453.976 413.865L447.014 409.417C446.858 409.324 446.684 409.267 446.503 409.251C446.323 409.234 446.141 409.259 445.971 409.323L445.921 409.369ZM466.231 398.813L459.285 402.416C458.989 402.572 458.965 402.835 459.258 403.017L466.281 407.467C466.439 407.551 466.613 407.599 466.792 407.607C466.971 407.615 467.149 407.583 467.313 407.513L474.26 403.91C474.555 403.755 474.579 403.491 474.286 403.309L467.264 398.859C467.116 398.775 466.952 398.724 466.782 398.708C466.613 398.692 466.442 398.712 466.281 398.767L466.231 398.813ZM425.589 419.875L418.631 423.49C418.335 423.645 418.323 423.909 418.605 424.078L425.567 428.526C425.725 428.61 425.9 428.658 426.078 428.665C426.257 428.673 426.435 428.641 426.6 428.572L433.547 424.957C433.842 424.801 433.854 424.537 433.573 424.356L426.551 419.906C426.269 419.783 425.95 419.774 425.661 419.878L425.589 419.875ZM435.738 414.597L428.791 418.212C428.73 418.231 428.675 418.269 428.636 418.32C428.596 418.371 428.574 418.433 428.571 418.497C428.568 418.562 428.585 418.626 428.62 418.68C428.655 418.734 428.706 418.776 428.765 418.801L435.788 423.251C435.943 423.338 436.116 423.388 436.293 423.396C436.47 423.404 436.647 423.369 436.809 423.296L443.767 419.682C444.063 419.526 444.075 419.262 443.794 419.081L436.772 414.631C436.616 414.553 436.445 414.509 436.27 414.504C436.096 414.498 435.923 414.53 435.762 414.598L435.738 414.597ZM424.053 452.934L431.011 449.319C431.073 449.3 431.127 449.263 431.167 449.212C431.206 449.161 431.229 449.099 431.232 449.034C431.235 448.97 431.218 448.906 431.183 448.852C431.148 448.797 431.097 448.755 431.037 448.731L424.075 444.283C423.919 444.193 423.744 444.142 423.564 444.134C423.384 444.126 423.205 444.161 423.042 444.237L416.096 447.84C415.8 447.996 415.788 448.26 416.069 448.441L423.032 452.888C423.197 452.982 423.382 453.036 423.572 453.044C423.762 453.053 423.952 453.016 424.125 452.937L424.053 452.934ZM369.113 446.348L362.091 441.898C361.933 441.814 361.758 441.766 361.58 441.758C361.401 441.751 361.223 441.783 361.058 441.852L354.233 445.437C353.937 445.592 353.926 445.856 354.206 446.037L361.229 450.487C361.387 450.571 361.562 450.619 361.74 450.627C361.919 450.635 362.097 450.603 362.262 450.533L369.209 446.918C369.262 446.891 369.306 446.849 369.336 446.798C369.366 446.746 369.38 446.687 369.378 446.628C369.375 446.568 369.356 446.51 369.322 446.462C369.288 446.413 369.241 446.375 369.185 446.352L369.113 446.348ZM382.804 450.757L375.842 446.31C375.686 446.219 375.511 446.168 375.331 446.16C375.151 446.152 374.972 446.188 374.809 446.264L364.119 451.807C363.823 451.962 363.799 452.226 364.092 452.407L371.115 456.858C371.273 456.942 371.447 456.989 371.626 456.997C371.805 457.005 371.983 456.973 372.147 456.903L382.837 451.361C383.134 451.193 383.157 450.929 382.876 450.761L382.804 450.757ZM358.638 437.81L351.615 433.36C351.458 433.276 351.283 433.228 351.104 433.22C350.926 433.212 350.747 433.245 350.583 433.314L342.035 437.749C341.74 437.904 341.716 438.168 342.009 438.349L349.031 442.8C349.189 442.884 349.364 442.931 349.543 442.939C349.721 442.947 349.899 442.915 350.064 442.845L358.683 438.414C358.968 438.246 358.979 437.982 358.71 437.814L358.638 437.81ZM365.191 434.395C365.347 434.485 365.522 434.536 365.702 434.544C365.881 434.552 366.061 434.516 366.224 434.44L373.17 430.825C373.466 430.67 373.478 430.406 373.197 430.225L366.174 425.786C366.02 425.696 365.847 425.645 365.669 425.637C365.491 425.629 365.314 425.665 365.153 425.741L358.194 429.356C357.899 429.511 357.887 429.775 358.168 429.944L365.191 434.395ZM395.509 455.688L388.486 451.25C388.33 451.16 388.155 451.108 387.975 451.1C387.795 451.092 387.616 451.128 387.453 451.204L374.09 458.145C373.794 458.3 373.782 458.576 374.063 458.745L381.086 463.195C381.244 463.279 381.418 463.327 381.597 463.335C381.776 463.343 381.954 463.311 382.119 463.241L395.482 456.301C395.765 456.157 395.777 455.893 395.509 455.688ZM400.652 464.544L393.629 460.093C393.471 460.009 393.297 459.962 393.118 459.954C392.939 459.946 392.761 459.978 392.596 460.047L384.049 464.482C383.987 464.501 383.933 464.538 383.893 464.589C383.854 464.64 383.831 464.702 383.828 464.767C383.825 464.831 383.843 464.895 383.878 464.95C383.912 465.004 383.963 465.046 384.023 465.07L391.046 469.521C391.201 469.611 391.377 469.662 391.556 469.67C391.736 469.678 391.915 469.643 392.078 469.567L400.626 465.132C400.908 465.012 400.919 464.748 400.651 464.568L400.652 464.544ZM440.776 395.123C440.934 395.207 441.109 395.254 441.288 395.262C441.466 395.27 441.644 395.238 441.809 395.168L448.756 391.553C448.818 391.534 448.872 391.497 448.911 391.446C448.951 391.395 448.974 391.333 448.977 391.268C448.979 391.204 448.962 391.14 448.927 391.086C448.893 391.031 448.842 390.989 448.782 390.965L441.759 386.515C441.601 386.431 441.427 386.383 441.248 386.375C441.069 386.367 440.891 386.399 440.727 386.469L433.78 390.072C433.485 390.227 433.473 390.491 433.754 390.672L440.776 395.123ZM420.513 405.716C420.668 405.804 420.841 405.853 421.018 405.861C421.195 405.869 421.372 405.835 421.534 405.762L428.492 402.159C428.558 402.143 428.617 402.107 428.66 402.054C428.704 402.002 428.729 401.937 428.732 401.869C428.735 401.801 428.716 401.734 428.677 401.678C428.639 401.622 428.583 401.58 428.519 401.559L421.496 397.108C421.338 397.024 421.163 396.977 420.985 396.969C420.806 396.961 420.628 396.993 420.463 397.062L413.517 400.665C413.221 400.821 413.21 401.085 413.49 401.266L420.513 405.716ZM375.46 429.122C375.616 429.212 375.791 429.263 375.971 429.271C376.15 429.279 376.33 429.244 376.493 429.168L383.451 425.553C383.517 425.537 383.577 425.501 383.62 425.448C383.663 425.396 383.688 425.331 383.691 425.263C383.694 425.195 383.675 425.128 383.636 425.072C383.598 425.016 383.542 424.974 383.478 424.953L376.515 420.517C376.359 420.427 376.184 420.375 376.004 420.368C375.824 420.36 375.645 420.395 375.482 420.471L368.535 424.086C368.24 424.242 368.228 424.506 368.509 424.675L375.46 429.122ZM430.662 400.438C430.82 400.522 430.994 400.57 431.173 400.578C431.352 400.586 431.53 400.554 431.695 400.484L438.641 396.881C438.936 396.726 438.961 396.45 438.667 396.281L431.645 391.83C431.487 391.746 431.312 391.699 431.134 391.691C430.955 391.683 430.777 391.715 430.612 391.784L423.666 395.387C423.37 395.543 423.347 395.806 423.639 395.988L430.662 400.438ZM410.352 410.994C410.51 411.078 410.685 411.125 410.863 411.133C411.042 411.141 411.22 411.109 411.385 411.04L418.331 407.437C418.627 407.281 418.638 407.017 418.358 406.836L411.395 402.388C411.237 402.304 411.063 402.257 410.884 402.249C410.705 402.241 410.527 402.273 410.362 402.343L403.404 405.957C403.342 405.976 403.287 406.014 403.248 406.065C403.208 406.116 403.186 406.178 403.183 406.242C403.18 406.307 403.197 406.37 403.232 406.425C403.267 406.479 403.318 406.521 403.378 406.546L410.352 410.994ZM405.838 465.363C405.68 465.279 405.505 465.231 405.326 465.223C405.148 465.215 404.97 465.247 404.805 465.317L394.115 470.86C393.819 471.015 393.795 471.279 394.089 471.448L401.051 475.896C401.209 475.98 401.384 476.028 401.562 476.036C401.741 476.044 401.919 476.012 402.084 475.942L412.774 470.399C412.836 470.38 412.89 470.343 412.93 470.292C412.969 470.241 412.992 470.179 412.995 470.114C412.998 470.05 412.981 469.986 412.946 469.931C412.911 469.877 412.86 469.835 412.8 469.811L405.838 465.363ZM395.794 418.567C395.952 418.651 396.126 418.699 396.305 418.707C396.484 418.715 396.662 418.683 396.826 418.613L403.773 414.998C404.069 414.843 404.081 414.579 403.8 414.398L396.777 409.947C396.619 409.863 396.445 409.816 396.266 409.808C396.087 409.8 395.909 409.832 395.744 409.901L388.798 413.516C388.502 413.672 388.49 413.936 388.772 414.105L395.794 418.567ZM385.633 423.845C385.789 423.935 385.964 423.986 386.144 423.994C386.323 424.002 386.502 423.967 386.666 423.891L393.612 420.276C393.908 420.12 393.932 419.857 393.639 419.675L386.676 415.239C386.52 415.149 386.345 415.098 386.165 415.09C385.985 415.082 385.806 415.118 385.643 415.194L378.635 418.842C378.351 418.998 378.327 419.262 378.609 419.43L385.633 423.845ZM593.984 367.568C593.826 367.484 593.652 367.436 593.473 367.428C593.294 367.421 593.116 367.453 592.951 367.522L575.845 376.391C575.783 376.41 575.729 376.447 575.689 376.498C575.65 376.549 575.627 376.611 575.624 376.676C575.621 376.74 575.638 376.804 575.673 376.858C575.708 376.913 575.759 376.955 575.819 376.979L582.841 381.43C582.997 381.52 583.172 381.571 583.352 381.579C583.532 381.587 583.711 381.551 583.874 381.475L600.969 372.606C601.264 372.451 601.288 372.187 600.995 372.006L593.984 367.568ZM571.47 379.253C571.315 379.163 571.139 379.112 570.96 379.104C570.78 379.096 570.601 379.131 570.438 379.208L563.515 382.812C563.22 382.967 563.208 383.231 563.489 383.412L570.452 387.848C570.608 387.938 570.783 387.989 570.963 387.997C571.143 388.005 571.322 387.97 571.485 387.894L578.443 384.279C578.51 384.263 578.569 384.226 578.612 384.174C578.655 384.122 578.68 384.057 578.683 383.989C578.686 383.921 578.667 383.854 578.629 383.798C578.59 383.742 578.534 383.7 578.47 383.679L571.47 379.253ZM434.298 447.66L441.244 444.045C441.54 443.89 441.564 443.626 441.27 443.456L434.308 439.009C434.15 438.925 433.975 438.877 433.797 438.869C433.618 438.861 433.44 438.893 433.275 438.963L426.315 442.613C426.031 442.769 426.007 443.033 426.288 443.214L433.251 447.662C433.414 447.74 433.593 447.781 433.774 447.781C433.956 447.78 434.134 447.739 434.298 447.66ZM551.173 389.797C551.015 389.713 550.841 389.666 550.662 389.658C550.483 389.65 550.305 389.682 550.14 389.752L543.194 393.367C542.898 393.522 542.874 393.786 543.167 393.967L550.13 398.403C550.286 398.493 550.461 398.544 550.641 398.552C550.821 398.56 551 398.525 551.163 398.449L558.11 394.834C558.405 394.678 558.429 394.415 558.136 394.245L551.173 389.797ZM604.133 362.29C603.975 362.206 603.801 362.158 603.622 362.15C603.443 362.142 603.265 362.175 603.1 362.244L596.091 365.905C596.03 365.923 595.975 365.961 595.936 366.012C595.896 366.063 595.874 366.125 595.871 366.19C595.868 366.254 595.885 366.318 595.92 366.372C595.955 366.427 596.006 366.469 596.065 366.493L603.088 370.943C603.246 371.027 603.42 371.075 603.599 371.083C603.778 371.091 603.956 371.059 604.121 370.989L611.067 367.386C611.363 367.231 611.374 366.967 611.093 366.786L604.133 362.29ZM621.257 361.46L604.277 350.624C604.119 350.541 603.944 350.493 603.766 350.485C603.587 350.477 603.409 350.509 603.244 350.579L596.298 354.182C596.002 354.337 595.991 354.601 596.271 354.782L613.192 365.579C613.35 365.663 613.525 365.711 613.704 365.719C613.882 365.727 614.061 365.695 614.225 365.625L621.171 362.022C621.454 361.902 621.477 361.638 621.196 361.458L621.257 361.46ZM513.238 409.523C513.082 409.433 512.907 409.382 512.727 409.374C512.547 409.366 512.368 409.401 512.205 409.478L503.646 413.911C503.35 414.067 503.339 414.331 503.619 414.512L510.642 418.962C510.8 419.046 510.975 419.094 511.153 419.102C511.332 419.11 511.51 419.078 511.675 419.008L520.222 414.574C520.518 414.418 520.541 414.155 520.248 413.985L513.238 409.523ZM538.892 396.22C538.734 396.136 538.559 396.089 538.381 396.081C538.202 396.073 538.024 396.105 537.859 396.175L527.169 401.717C526.873 401.873 526.85 402.136 527.143 402.306L534.165 406.756C534.323 406.84 534.498 406.888 534.677 406.896C534.855 406.904 535.034 406.872 535.198 406.802L545.888 401.259C546.183 401.116 546.208 400.84 545.914 400.671L538.892 396.22ZM489.712 421.777C489.555 421.693 489.38 421.646 489.201 421.638C489.022 421.63 488.844 421.662 488.68 421.732L431.494 451.458C431.198 451.614 431.175 451.877 431.468 452.047L438.431 456.495C438.586 456.585 438.762 456.636 438.941 456.644C439.121 456.652 439.3 456.616 439.463 456.54L496.59 426.787C496.656 426.771 496.715 426.734 496.758 426.682C496.802 426.63 496.827 426.565 496.83 426.497C496.833 426.429 496.813 426.362 496.775 426.306C496.737 426.25 496.681 426.208 496.616 426.186L489.712 421.777ZM429.36 453.181C429.204 453.091 429.029 453.039 428.849 453.031C428.67 453.023 428.49 453.059 428.327 453.135L419.78 457.57C419.484 457.725 419.461 457.989 419.753 458.17L426.777 462.608C426.932 462.699 427.108 462.75 427.287 462.758C427.467 462.766 427.646 462.73 427.809 462.654L436.429 458.223C436.495 458.207 436.554 458.17 436.597 458.118C436.64 458.066 436.665 458.001 436.668 457.933C436.671 457.865 436.652 457.798 436.614 457.742C436.575 457.686 436.52 457.644 436.455 457.622L429.36 453.181ZM501.522 415.67C501.367 415.58 501.191 415.529 501.012 415.521C500.832 415.513 500.653 415.549 500.49 415.625L491.942 420.059C491.647 420.215 491.623 420.478 491.916 420.66L498.938 425.11C499.096 425.194 499.271 425.242 499.45 425.25C499.628 425.258 499.806 425.226 499.971 425.156L508.518 420.721C508.814 420.578 508.838 420.302 508.544 420.133L501.522 415.67ZM417.598 459.29C417.44 459.206 417.266 459.158 417.087 459.15C416.908 459.142 416.73 459.174 416.565 459.244L408.018 463.679C407.722 463.834 407.711 464.098 407.991 464.279L415.014 468.73C415.169 468.817 415.342 468.866 415.519 468.874C415.696 468.882 415.873 468.848 416.035 468.775L424.594 464.341C424.89 464.185 424.901 463.921 424.62 463.752L417.598 459.29ZM525.035 403.452C524.879 403.362 524.704 403.31 524.524 403.302C524.344 403.294 524.165 403.33 524.002 403.406L515.454 407.841C515.159 407.996 515.147 408.26 515.428 408.441L522.451 412.879C522.607 412.97 522.782 413.021 522.962 413.029C523.142 413.037 523.321 413.001 523.484 412.925L532.031 408.491C532.327 408.335 532.338 408.071 532.058 407.89L525.035 403.452ZM561.378 384.606C561.223 384.516 561.047 384.465 560.868 384.457C560.688 384.449 560.509 384.484 560.346 384.56L553.331 388.076C553.035 388.231 553.024 388.496 553.305 388.676L560.328 393.115C560.483 393.205 560.659 393.256 560.838 393.264C561.018 393.272 561.197 393.237 561.36 393.161L568.307 389.546C568.603 389.39 568.614 389.126 568.333 388.957L561.378 384.606ZM584.011 369.966L590.969 366.364C591.265 366.208 591.277 365.944 590.996 365.763L583.973 361.313C583.815 361.229 583.641 361.181 583.462 361.173C583.283 361.165 583.105 361.197 582.94 361.267L575.994 364.87C575.699 365.025 575.686 365.301 575.968 365.47L582.99 369.921C583.143 369.982 583.308 370.009 583.473 369.999C583.637 369.99 583.798 369.945 583.943 369.867L584.011 369.966ZM541.665 368.932L548.611 365.329C548.907 365.174 548.919 364.91 548.638 364.729L541.615 360.278C541.457 360.194 541.283 360.147 541.104 360.139C540.925 360.131 540.747 360.163 540.582 360.233L533.636 363.848C533.34 364.003 533.328 364.267 533.61 364.436L540.632 368.887C540.787 368.95 540.954 368.979 541.121 368.969C541.288 368.96 541.451 368.914 541.597 368.833L541.665 368.932ZM515.585 405.44L535.895 394.872C535.957 394.853 536.011 394.816 536.051 394.765C536.09 394.714 536.113 394.652 536.116 394.587C536.119 394.523 536.102 394.459 536.067 394.405C536.032 394.35 535.981 394.308 535.921 394.284L528.899 389.833C528.743 389.743 528.568 389.692 528.388 389.684C528.208 389.676 528.029 389.712 527.866 389.788L507.556 400.343C507.494 400.362 507.44 400.4 507.4 400.451C507.361 400.502 507.338 400.564 507.335 400.628C507.332 400.693 507.35 400.757 507.385 400.811C507.419 400.865 507.47 400.907 507.53 400.932L514.553 405.382C514.71 405.468 514.884 405.518 515.062 405.528C515.241 405.538 515.419 405.508 515.585 405.44ZM572.809 375.113C572.967 375.197 573.142 375.245 573.32 375.253C573.499 375.261 573.677 375.229 573.842 375.159L580.788 371.556C581.084 371.401 581.095 371.136 580.815 370.955L573.792 366.505C573.634 366.421 573.459 366.373 573.281 366.365C573.102 366.358 572.924 366.39 572.759 366.459L565.8 370.074C565.739 370.093 565.684 370.13 565.645 370.181C565.605 370.232 565.583 370.294 565.58 370.359C565.577 370.423 565.594 370.487 565.629 370.541C565.664 370.596 565.715 370.638 565.774 370.662L572.809 375.113ZM563.884 368.798L570.842 365.195C571.125 365.039 571.149 364.776 570.868 364.595L563.906 360.147C563.748 360.063 563.573 360.015 563.395 360.007C563.216 359.999 563.038 360.031 562.873 360.101L555.938 363.717C555.643 363.872 555.619 364.136 555.912 364.317L562.874 368.765C563.024 368.836 563.186 368.875 563.352 368.88C563.517 368.886 563.682 368.857 563.836 368.795L563.884 368.798ZM505.471 410.731L512.418 407.116C512.714 406.961 512.726 406.697 512.445 406.516L505.422 402.066C505.264 401.982 505.09 401.934 504.911 401.926C504.732 401.918 504.554 401.95 504.389 402.02L497.431 405.634C497.135 405.79 497.123 406.054 497.405 406.223L504.367 410.67C504.522 410.751 504.692 410.796 504.867 410.804C505.041 410.812 505.215 410.781 505.376 410.715L505.471 410.731ZM550.31 386.739C550.466 386.829 550.641 386.88 550.821 386.888C551.001 386.896 551.18 386.861 551.343 386.785L558.289 383.17C558.585 383.014 558.609 382.751 558.316 382.569L551.353 378.133C551.197 378.043 551.022 377.992 550.842 377.984C550.662 377.976 550.483 378.012 550.32 378.088L543.373 381.703C543.078 381.858 543.054 382.122 543.347 382.303L550.31 386.739ZM454.597 437.068L461.544 433.453C461.839 433.297 461.863 433.034 461.57 432.864L454.607 428.417C454.451 428.326 454.276 428.275 454.096 428.267C453.917 428.259 453.738 428.295 453.574 428.371L446.628 431.986C446.332 432.141 446.308 432.405 446.601 432.586L453.624 437.025C453.77 437.11 453.933 437.162 454.101 437.176C454.269 437.189 454.438 437.165 454.595 437.104L454.597 437.068ZM464.758 431.79L471.705 428.175C472 428.02 472.012 427.756 471.731 427.587L464.708 423.136C464.552 423.046 464.377 422.995 464.197 422.987C464.017 422.979 463.838 423.015 463.675 423.091L456.729 426.706C456.433 426.861 456.421 427.125 456.702 427.306L463.725 431.745C463.878 431.84 464.051 431.898 464.231 431.912C464.41 431.926 464.591 431.897 464.756 431.826L464.758 431.79ZM444.448 442.346L451.395 438.731C451.69 438.575 451.702 438.311 451.421 438.142L444.398 433.692C444.24 433.608 444.066 433.56 443.887 433.552C443.708 433.544 443.53 433.577 443.365 433.646L436.419 437.261C436.123 437.417 436.111 437.681 436.392 437.862L443.415 442.312C443.571 442.4 443.744 442.452 443.923 442.464C444.101 442.476 444.28 442.448 444.446 442.382L444.448 442.346ZM485.09 421.284L492.036 417.669C492.332 417.514 492.344 417.249 492.063 417.068L485.04 412.63C484.886 412.54 484.713 412.489 484.535 412.481C484.357 412.473 484.18 412.509 484.019 412.585L477.06 416.199C476.765 416.355 476.753 416.619 477.034 416.788L484.057 421.238C484.211 421.322 484.382 421.369 484.558 421.375C484.733 421.381 484.907 421.345 485.066 421.271L485.09 421.284ZM474.941 426.55L481.888 422.935C482.184 422.78 482.207 422.516 481.914 422.334L474.891 417.896C474.736 417.806 474.56 417.755 474.381 417.747C474.201 417.739 474.022 417.774 473.859 417.85L466.912 421.465C466.616 421.621 466.593 421.884 466.885 422.066L473.908 426.504C474.064 426.594 474.239 426.646 474.419 426.654C474.599 426.662 474.778 426.626 474.941 426.55ZM495.251 415.994L502.21 412.38C502.276 412.364 502.335 412.327 502.378 412.275C502.421 412.223 502.446 412.158 502.449 412.09C502.452 412.022 502.433 411.955 502.395 411.899C502.356 411.843 502.301 411.801 502.236 411.779L495.213 407.341C495.057 407.251 494.882 407.2 494.702 407.192C494.523 407.184 494.344 407.219 494.18 407.295L487.234 410.91C486.938 411.066 486.926 411.33 487.208 411.499L494.17 415.946C494.327 416.039 494.505 416.091 494.687 416.099C494.869 416.107 495.05 416.071 495.215 415.993L495.251 415.994ZM548.569 336.124C548.725 336.214 548.9 336.265 549.08 336.273C549.26 336.281 549.439 336.246 549.602 336.169L556.561 332.555C556.856 332.4 556.868 332.135 556.587 331.967L554.738 330.778C554.58 330.694 554.406 330.646 554.227 330.638C554.048 330.63 553.87 330.662 553.706 330.732L546.759 334.347C546.463 334.502 546.452 334.766 546.732 334.947L548.569 336.124ZM498.219 365.299C498.373 365.386 498.546 365.436 498.724 365.444C498.901 365.451 499.078 365.417 499.24 365.344L506.198 361.73C506.494 361.574 506.506 361.31 506.225 361.129L499.202 356.679C499.044 356.595 498.87 356.547 498.691 356.539C498.512 356.531 498.334 356.563 498.17 356.633L491.223 360.248C491.161 360.267 491.107 360.304 491.067 360.356C491.028 360.407 491.005 360.469 491.002 360.533C490.999 360.598 491.016 360.661 491.051 360.716C491.086 360.77 491.137 360.812 491.197 360.837L498.219 365.299ZM518.529 354.743C518.687 354.827 518.861 354.875 519.04 354.883C519.219 354.891 519.397 354.859 519.561 354.789L526.508 351.186C526.803 351.031 526.815 350.767 526.534 350.586L519.512 346.135C519.354 346.051 519.179 346.004 519 345.996C518.822 345.988 518.644 346.02 518.479 346.09L511.532 349.705C511.47 349.723 511.416 349.761 511.377 349.812C511.337 349.863 511.314 349.925 511.311 349.99C511.309 350.054 511.326 350.118 511.361 350.172C511.395 350.226 511.446 350.269 511.506 350.293L518.529 354.743ZM485.792 371.74C485.948 371.83 486.123 371.881 486.303 371.889C486.483 371.897 486.662 371.861 486.825 371.785L493.772 368.17C494.068 368.015 494.079 367.751 493.798 367.57L486.775 363.131C486.62 363.041 486.444 362.99 486.265 362.982C486.085 362.974 485.906 363.01 485.743 363.086L478.879 366.728C478.583 366.884 478.571 367.148 478.852 367.329L485.792 371.74ZM508.344 360.02C508.499 360.11 508.675 360.161 508.855 360.169C509.034 360.177 509.213 360.142 509.377 360.066L516.323 356.463C516.618 356.307 516.642 356.044 516.349 355.862L509.327 351.412C509.169 351.328 508.994 351.28 508.815 351.272C508.637 351.264 508.459 351.296 508.294 351.366L501.347 354.981C501.052 355.124 501.028 355.4 501.321 355.569L508.344 360.02ZM465.483 382.295C465.636 382.385 465.809 382.436 465.987 382.444C466.165 382.452 466.342 382.416 466.503 382.34L473.462 378.726C473.758 378.571 473.769 378.306 473.488 378.137L466.466 373.687C466.31 373.597 466.135 373.546 465.955 373.538C465.775 373.53 465.596 373.565 465.433 373.641L458.486 377.256C458.19 377.412 458.179 377.676 458.459 377.857L465.483 382.295ZM475.631 377.017C475.787 377.107 475.962 377.159 476.142 377.166C476.322 377.174 476.501 377.139 476.664 377.063L483.611 373.448C483.907 373.292 483.93 373.029 483.637 372.859L476.674 368.412C476.519 368.321 476.343 368.27 476.164 368.262C475.984 368.254 475.805 368.29 475.642 368.366L468.695 371.981C468.399 372.136 468.376 372.4 468.668 372.581L475.631 377.017ZM528.234 346.714C528.39 346.804 528.565 346.856 528.745 346.864C528.925 346.872 529.104 346.836 529.267 346.76L536.225 343.146C536.509 342.99 536.533 342.726 536.251 342.557L534.403 341.368C534.245 341.284 534.07 341.237 533.892 341.229C533.713 341.221 533.535 341.253 533.37 341.322L526.424 344.925C526.128 345.081 526.105 345.344 526.397 345.526L528.234 346.714ZM558.705 330.881C558.86 330.971 559.036 331.023 559.215 331.031C559.395 331.039 559.574 331.003 559.737 330.927L566.684 327.312C566.98 327.157 567.003 326.893 566.711 326.712L564.85 325.534C564.692 325.45 564.517 325.402 564.338 325.394C564.16 325.387 563.982 325.419 563.817 325.488L556.858 329.103C556.792 329.118 556.733 329.155 556.69 329.208C556.646 329.26 556.621 329.325 556.618 329.393C556.615 329.461 556.635 329.528 556.673 329.584C556.711 329.64 556.767 329.682 556.832 329.703L558.705 330.881ZM573.344 340.217C573.5 340.308 573.675 340.359 573.855 340.367C574.035 340.375 574.214 340.339 574.377 340.263L581.324 336.648C581.619 336.493 581.631 336.229 581.35 336.06L574.327 331.609C574.174 331.519 574 331.468 573.822 331.46C573.644 331.452 573.467 331.488 573.306 331.564L566.348 335.179C566.052 335.334 566.04 335.598 566.321 335.779L573.344 340.217ZM594.103 364.613L601.049 361.01C601.345 360.855 601.369 360.591 601.076 360.41L594.113 355.962C593.955 355.878 593.781 355.83 593.602 355.822C593.423 355.815 593.245 355.847 593.08 355.916L586.207 359.51C585.911 359.666 585.888 359.929 586.18 360.111L593.143 364.559C593.291 364.633 593.452 364.677 593.617 364.686C593.782 364.696 593.948 364.671 594.103 364.613ZM538.418 341.462C538.574 341.552 538.749 341.603 538.929 341.611C539.108 341.619 539.287 341.584 539.451 341.508L546.397 337.893C546.693 337.737 546.705 337.473 546.423 337.304L544.563 336.115C544.407 336.025 544.232 335.973 544.052 335.965C543.872 335.957 543.693 335.993 543.53 336.069L536.548 339.658C536.253 339.814 536.241 340.078 536.522 340.259L538.418 341.462ZM455.345 387.598C455.5 387.688 455.676 387.739 455.855 387.747C456.035 387.755 456.214 387.72 456.377 387.643L463.324 384.028C463.62 383.873 463.631 383.609 463.35 383.44L456.401 378.969C456.243 378.885 456.068 378.837 455.889 378.829C455.711 378.821 455.533 378.853 455.368 378.923L448.409 382.537C448.126 382.693 448.102 382.957 448.383 383.138L455.345 387.598Z" fill="#455A64"/>
<path d="M489.035 447.402L551.627 414.87C552.681 414.394 553.833 414.173 554.989 414.224C556.144 414.276 557.272 414.598 558.28 415.165L592.404 436.916C594.194 438.066 594.118 439.783 592.234 440.771L529.654 473.291C528.599 473.772 527.444 473.997 526.286 473.945C525.127 473.894 523.997 473.568 522.989 472.996L488.889 451.246C487.133 450.121 487.211 448.38 489.035 447.402Z" fill="#263238"/>
<defs>
<filter id="filter0_bd_369_2489" x="89" y="105" width="811" height="495" filterUnits="userSpaceOnUse" color-interpolation-filters="sRGB">
<feFlood flood-opacity="0" result="BackgroundImageFix"/>
<feGaussianBlur in="BackgroundImageFix" stdDeviation="18"/>
<feComposite in2="SourceAlpha" operator="in" result="effect1_backgroundBlur_369_2489"/>
<feColorMatrix in="SourceAlpha" type="matrix" values="0 0 0 0 0 0 0 0 0 0 0 0 0 0 0 0 0 0 127 0" result="hardAlpha"/>
<feMorphology radius="1" operator="erode" in="SourceAlpha" result="effect2_dropShadow_369_2489"/>
<feOffset dx="9" dy="20"/>
<feGaussianBlur stdDeviation="13"/>
<feComposite in2="hardAlpha" operator="out"/>
<feColorMatrix type="matrix" values="0 0 0 0 0 0 0 0 0 0 0 0 0 0 0 0 0 0 0.18 0"/>
<feBlend mode="normal" in2="effect1_backgroundBlur_369_2489" result="effect2_dropShadow_369_2489"/>
<feBlend mode="normal" in="SourceGraphic" in2="effect2_dropShadow_369_2489" result="shape"/>
</filter>
<linearGradient id="paint0_linear_369_2489" x1="-74" y1="551" x2="445" y2="498.5" gradientUnits="userSpaceOnUse">
<stop stop-color="#36055C"/>
<stop offset="0.784433" stop-color="#850F87" stop-opacity="0.58"/>
<stop offset="1" stop-color="#6415A2" stop-opacity="0.35"/>
</linearGradient>
<linearGradient id="paint1_linear_369_2489" x1="125" y1="348.543" x2="846.568" y2="465.171" gradientUnits="userSpaceOnUse">
<stop stop-color="white" stop-opacity="0.13"/>
<stop offset="1" stop-color="white" stop-opacity="0.08"/>
</linearGradient>
<linearGradient id="paint2_linear_369_2489" x1="125" y1="158.5" x2="864" y2="555" gradientUnits="userSpaceOnUse">
<stop stop-color="#BA68C8" stop-opacity="0.29"/>
<stop offset="1" stop-color="#BA68C8" stop-opacity="0.26"/>
</linearGradient>
</defs>
</svg>
