<svg width="20" height="24" viewBox="0 0 20 24" fill="none" xmlns="http://www.w3.org/2000/svg">
<path d="M2.32 0.47998C1.52688 0.47998 0.880005 1.12686 0.880005 1.91998V22.08C0.880005 22.8731 1.52688 23.52 2.32 23.52H17.68C18.4731 23.52 19.12 22.8731 19.12 22.08V1.91998C19.12 1.12686 18.4731 0.47998 17.68 0.47998H2.32ZM10 4.31998C12.9119 4.31998 15.28 6.68811 15.28 9.59998C15.28 12.5119 12.9119 14.88 10 14.88C7.08813 14.88 4.72 12.5119 4.72 9.59998C4.72 6.68811 7.08813 4.31998 10 4.31998ZM9.52 5.44498C8.82813 5.89498 8.19063 7.26186 8.095 9.11998H9.52V5.44498ZM10.48 5.44498V9.11998H11.905C11.8094 7.26186 11.1719 5.89498 10.48 5.44498ZM7.975 5.78998C6.74875 6.44623 5.87125 7.67623 5.71 9.11998H7.135C7.195 7.79248 7.5025 6.63561 7.975 5.78998ZM12.025 5.78998C12.4975 6.63561 12.805 7.79248 12.865 9.11998H14.29C14.1288 7.67623 13.2531 6.44623 12.025 5.78998ZM5.71 10.08C5.87125 11.5237 6.74875 12.7537 7.975 13.41C7.5025 12.5644 7.195 11.4075 7.135 10.08H5.71ZM8.095 10.08C8.19063 11.9381 8.82813 13.305 9.52 13.755V10.08H8.095ZM10.48 10.08V13.755C11.1719 13.3069 11.8094 11.9381 11.905 10.08H10.48ZM12.865 10.08C12.805 11.4075 12.4975 12.5644 12.025 13.41C13.2513 12.7537 14.1288 11.5237 14.29 10.08H12.865ZM4.24 18.24H15.76C16.0263 18.24 16.24 18.4537 16.24 18.72C16.24 18.9862 16.0263 19.2 15.76 19.2H4.24C3.97563 19.2 3.76 18.9862 3.76 18.72C3.76 18.4537 3.97563 18.24 4.24 18.24Z" fill="#637381"/>
</svg>
