<svg width="1728" height="2704" viewBox="0 0 1728 2704" fill="none" xmlns="http://www.w3.org/2000/svg">
<g opacity="0.15">
<rect x="-0.608171" y="-0.347084" width="1386.68" height="1594.74" transform="matrix(-0.962027 0.272954 -0.254315 -0.967121 1719.69 2075.97)" stroke="#BA68C8"/>
<rect x="-0.506802" y="-0.482845" width="1372.73" height="1597.11" transform="matrix(-0.999415 0.0342088 -0.014189 -0.999899 1546.3 2267.92)" stroke="#BA68C8"/>
<rect x="-0.377313" y="-0.591244" width="1359.39" height="1598.73" transform="matrix(-0.978172 -0.207795 0.223546 -0.974693 1334.4 2412.27)" stroke="#BA68C8"/>
<rect x="-0.228165" y="-0.666035" width="1348.07" height="1598" transform="matrix(-0.900004 -0.435883 0.443674 -0.896188 1099.66 2500.87)" stroke="#BA68C8"/>
<rect x="-0.0693768" y="-0.703857" width="1339.58" height="1594.05" transform="matrix(-0.772913 -0.634512 0.63416 -0.773202 859.024 2531.53)" stroke="#BA68C8"/>
<rect x="0.0884798" y="-0.704813" width="1333.91" height="1586.86" transform="matrix(-0.609893 -0.792484 0.786852 -0.617141 628.399 2507.88)" stroke="#BA68C8"/>
<rect x="0.235656" y="-0.672592" width="1330.38" height="1577.2" transform="matrix(-0.426374 -0.904547 0.897685 -0.440637 420.696 2438.29)" stroke="#BA68C8"/>
<rect x="0.364584" y="-0.613875" width="1327.96" height="1566.2" transform="matrix(-0.237418 -0.971408 0.966586 -0.256343 244.628 2334.29)" stroke="#BA68C8"/>
<rect x="0.470758" y="-0.53713" width="1325.65" height="1555.01" transform="matrix(-0.0556073 -0.998453 0.997123 -0.0758064 104.347 2208.68)" stroke="#BA68C8"/>
<rect x="0.552883" y="-0.451214" width="1322.7" height="1544.51" transform="matrix(0.109962 -0.993936 0.995804 0.0915084 -0.203124 2073.94)" stroke="#BA68C8"/>
<rect x="0.612388" y="-0.364199" width="1318.73" height="1535.18" transform="matrix(0.253727 -0.967276 0.97105 0.238877 -72.371 1940.94)" stroke="#BA68C8"/>
<rect x="0.652557" y="-0.282655" width="1313.67" height="1527.12" transform="matrix(0.37312 -0.927783 0.931994 0.362473 -117.642 1818.33)" stroke="#BA68C8"/>
<rect x="0.67759" y="-0.211416" width="1307.69" height="1520.17" transform="matrix(0.467785 -0.883842 0.887394 0.461011 -142.477 1712.34)" stroke="#BA68C8"/>
<rect x="0.69179" y="-0.153712" width="1301.04" height="1514.01" transform="matrix(0.538754 -0.842464 0.844827 0.53504 -153.291 1626.99)" stroke="#BA68C8"/>
<rect x="0.698968" y="-0.111502" width="1293.98" height="1508.34" transform="matrix(0.587686 -0.809089 0.810249 0.586085 -155.703 1564.57)" stroke="#BA68C8"/>
<rect x="0.702053" y="-0.0858504" width="1286.73" height="1502.9" transform="matrix(0.616245 -0.787555 0.78786 0.615854 -154.011 1526.14)" stroke="#BA68C8"/>
<rect x="-150.533" y="1511.41" width="1279.42" height="1497.53" transform="rotate(-51.2722 -150.533 1511.41)" stroke="#BA68C8"/>
<rect x="-0.602971" y="-0.356481" width="1380.04" height="1587.43" transform="matrix(-0.96618 0.25787 -0.239763 -0.970832 1706.89 2078.77)" stroke="#BA68C8"/>
<rect x="-0.499504" y="-0.490723" width="1366.37" height="1589.53" transform="matrix(-0.999828 0.0185542 0.000819846 -1 1531.45 2267.09)" stroke="#BA68C8"/>
<rect x="-0.368299" y="-0.59712" width="1353.29" height="1590.92" transform="matrix(-0.974812 -0.223028 0.238213 -0.971213 1318.4 2407.44)" stroke="#BA68C8"/>
<rect x="-0.217955" y="-0.669551" width="1342.16" height="1590.04" transform="matrix(-0.89315 -0.449759 0.45724 -0.889343 1083.45 2491.95)" stroke="#BA68C8"/>
<rect x="-0.058576" y="-0.704833" width="1333.75" height="1586.06" transform="matrix(-0.763098 -0.646283 0.645946 -0.763383 843.497 2518.72)" stroke="#BA68C8"/>
<rect x="0.0992597" y="-0.703269" width="1328.05" height="1578.96" transform="matrix(-0.597792 -0.801652 0.796311 -0.604887 614.331 2491.59)" stroke="#BA68C8"/>
<rect x="0.245876" y="-0.668731" width="1324.41" height="1569.48" transform="matrix(-0.412692 -0.910871 0.904445 -0.426591 408.647 2419.11)" stroke="#BA68C8"/>
<rect x="0.373836" y="-0.608024" width="1321.85" height="1558.71" transform="matrix(-0.222807 -0.974863 0.970479 -0.241185 234.962 2312.87)" stroke="#BA68C8"/>
<rect x="0.478784" y="-0.529677" width="1319.39" height="1547.76" transform="matrix(-0.0406196 -0.999175 0.998188 -0.0601797 97.2164 2185.69)" stroke="#BA68C8"/>
<rect x="0.559572" y="-0.442551" width="1316.32" height="1537.47" transform="matrix(0.124892 -0.99217 0.994252 0.107068 -4.82812 2049.97)" stroke="#BA68C8"/>
<rect x="0.61775" y="-0.354678" width="1312.26" height="1528.32" transform="matrix(0.268291 -0.963338 0.967209 0.253983 -74.6678 1916.5)" stroke="#BA68C8"/>
<rect x="0.656694" y="-0.272564" width="1307.16" height="1520.38" transform="matrix(0.387133 -0.922024 0.926256 0.376896 -117.896 1793.78)" stroke="#BA68C8"/>
<rect x="0.680668" y="-0.200975" width="1301.16" height="1513.51" transform="matrix(0.481175 -0.876625 0.880161 0.474675 -141.031 1687.91)" stroke="#BA68C8"/>
<rect x="0.694016" y="-0.143075" width="1294.52" height="1507.4" transform="matrix(0.551549 -0.834143 0.836484 0.547992 -150.52 1602.8)" stroke="#BA68C8"/>
<rect x="0.700573" y="-0.100768" width="1287.49" height="1501.77" transform="matrix(0.599998 -0.800002 0.801148 0.598466 -151.987 1540.65)" stroke="#BA68C8"/>
<rect x="0.703281" y="-0.0750751" width="1280.28" height="1496.36" transform="matrix(0.628242 -0.778018 0.77832 0.627868 -149.727 1502.43)" stroke="#BA68C8"/>
<rect x="-146.034" y="1487.83" width="1273.01" height="1491.01" transform="rotate(-50.3937 -146.034 1487.83)" stroke="#BA68C8"/>
<rect x="-0.595603" y="-0.36909" width="1373.39" height="1580.11" transform="matrix(-0.97142 0.237368 -0.219786 -0.975548 1690.62 2085.96)" stroke="#BA68C8"/>
<rect x="-0.48933" y="-0.501196" width="1360.01" height="1581.95" transform="matrix(-0.999997 -0.00262009 0.0213366 -0.999772 1512.21 2269.64)" stroke="#BA68C8"/>
<rect x="-0.355867" y="-0.604831" width="1347.19" height="1583.1" transform="matrix(-0.969886 -0.243558 0.258153 -0.966104 1297.33 2404.81)" stroke="#BA68C8"/>
<rect x="-0.203979" y="-0.674046" width="1336.24" height="1582.08" transform="matrix(-0.883513 -0.468407 0.475556 -0.879686 1061.8 2483.95)" stroke="#BA68C8"/>
<rect x="-0.0438714" y="-0.705895" width="1327.91" height="1578.06" transform="matrix(-0.749466 -0.662043 0.661723 -0.749748 822.468 2505.54)" stroke="#BA68C8"/>
<rect x="0.113878" y="-0.700943" width="1322.19" height="1571.06" transform="matrix(-0.581077 -0.813849 0.808834 -0.588038 594.952 2473.72)" stroke="#BA68C8"/>
<rect x="0.259694" y="-0.663292" width="1318.45" height="1561.76" transform="matrix(-0.393857 -0.919172 0.913244 -0.407412 391.742 2397.27)" stroke="#BA68C8"/>
<rect x="0.386306" y="-0.599912" width="1315.74" height="1551.22" transform="matrix(-0.202753 -0.97923 0.975366 -0.220593 221.065 2287.89)" stroke="#BA68C8"/>
<rect x="0.489561" y="-0.519413" width="1313.14" height="1540.51" transform="matrix(-0.0201152 -0.999798 0.999238 -0.0390277 86.5809 2158.44)" stroke="#BA68C8"/>
<rect x="0.568506" y="-0.430661" width="1309.94" height="1530.44" transform="matrix(0.145248 -0.989395 0.991765 0.128074 -12.2002 2021.24)" stroke="#BA68C8"/>
<rect x="0.624855" y="-0.341637" width="1305.79" height="1521.45" transform="matrix(0.288075 -0.957608 0.961635 0.274333 -78.9766 1886.96)" stroke="#BA68C8"/>
<rect x="0.662111" y="-0.258767" width="1300.65" height="1513.64" transform="matrix(0.406098 -0.913829 0.918123 0.396296 -119.488 1763.93)" stroke="#BA68C8"/>
<rect x="0.684625" y="-0.186718" width="1294.64" height="1506.85" transform="matrix(0.499236 -0.866466 0.870013 0.493029 -140.35 1658.1)" stroke="#BA68C8"/>
<rect x="0.696798" y="-0.128568" width="1288.01" height="1500.8" transform="matrix(0.568758 -0.822505 0.824838 0.56537 -148.052 1573.22)" stroke="#BA68C8"/>
<rect x="0.702498" y="-0.0861397" width="1281" height="1495.2" transform="matrix(0.616518 -0.787341 0.788479 0.615062 -148.243 1511.34)" stroke="#BA68C8"/>
<rect x="0.704687" y="-0.0603988" width="1273.82" height="1489.81" transform="matrix(0.644316 -0.764759 0.765058 0.643962 -145.215 1473.36)" stroke="#BA68C8"/>
<rect x="-141.228" y="1458.92" width="1266.59" height="1484.48" transform="rotate(-49.1993 -141.228 1458.92)" stroke="#BA68C8"/>
<rect x="-0.586028" y="-0.384528" width="1366.75" height="1572.79" transform="matrix(-0.977313 0.211799 -0.194742 -0.980855 1670.94 2096.89)" stroke="#BA68C8"/>
<rect x="-0.476335" y="-0.513885" width="1353.64" height="1574.37" transform="matrix(-0.999583 -0.0288709 0.0469124 -0.998899 1488.75 2274.98)" stroke="#BA68C8"/>
<rect x="-0.340161" y="-0.614019" width="1341.08" height="1575.29" transform="matrix(-0.963175 -0.268875 0.282854 -0.959163 1271.52 2403.85)" stroke="#BA68C8"/>
<rect x="-0.186465" y="-0.679205" width="1330.33" height="1574.12" transform="matrix(-0.871004 -0.491276 0.498074 -0.867135 1035.15 2476.45)" stroke="#BA68C8"/>
<rect x="-0.0255603" y="-0.70679" width="1322.08" height="1570.07" transform="matrix(-0.73206 -0.68124 0.680939 -0.73234 796.471 2491.67)" stroke="#BA68C8"/>
<rect x="0.131986" y="-0.697651" width="1316.33" height="1563.16" transform="matrix(-0.559915 -0.82855 0.823888 -0.566753 570.903 2454.08)" stroke="#BA68C8"/>
<rect x="0.276725" y="-0.656169" width="1312.49" height="1554.04" transform="matrix(-0.370147 -0.928973 0.923597 -0.383365 370.653 2372.71)" stroke="#BA68C8"/>
<rect x="0.401597" y="-0.589511" width="1309.64" height="1543.73" transform="matrix(-0.177624 -0.984098 0.980819 -0.194923 203.611 2259.43)" stroke="#BA68C8"/>
<rect x="0.502695" y="-0.506382" width="1306.88" height="1533.26" transform="matrix(0.00547072 -0.999985 0.999918 -0.0127794 73.0922 2127.13)" stroke="#BA68C8"/>
<rect x="0.579304" y="-0.415654" width="1303.56" height="1523.4" transform="matrix(0.170543 -0.98535 0.988064 0.154042 -21.7045 1988.04)" stroke="#BA68C8"/>
<rect x="0.633343" y="-0.325244" width="1299.33" height="1514.59" transform="matrix(0.312561 -0.949898 0.954124 0.299411 -84.7289 1852.69)" stroke="#BA68C8"/>
<rect x="0.66847" y="-0.241471" width="1294.13" height="1506.9" transform="matrix(0.429479 -0.903077 0.907462 0.420135 -121.905 1729.23)" stroke="#BA68C8"/>
<rect x="0.689148" y="-0.168888" width="1288.11" height="1500.19" transform="matrix(0.52142 -0.8533 0.856875 0.515524 -139.965 1623.39)" stroke="#BA68C8"/>
<rect x="0.699846" y="-0.110455" width="1281.49" height="1494.19" transform="matrix(0.589828 -0.807529 0.809863 0.586619 -145.471 1538.74)" stroke="#BA68C8"/>
<rect x="0.704472" y="-0.0679" width="1274.52" height="1488.63" transform="matrix(0.636693 -0.771118 0.772251 0.635318 -144.082 1477.17)" stroke="#BA68C8"/>
<rect x="0.70601" y="-0.0421132" width="1267.37" height="1483.27" transform="matrix(0.663916 -0.747807 0.748104 0.663581 -140.102 1439.47)" stroke="#BA68C8"/>
<rect x="-135.753" y="1425.21" width="1260.18" height="1477.96" transform="rotate(-47.7141 -135.753 1425.21)" stroke="#BA68C8"/>
<rect x="-0.574205" y="-0.40237" width="1360.1" height="1565.48" transform="matrix(-0.983382 0.181549 -0.165028 -0.986289 1647.86 2110.89)" stroke="#BA68C8"/>
<rect x="-0.460582" y="-0.528368" width="1347.28" height="1566.79" transform="matrix(-0.998216 -0.0597083 0.0770525 -0.997027 1461.28 2282.46)" stroke="#BA68C8"/>
<rect x="-0.321343" y="-0.624289" width="1334.98" height="1567.47" transform="matrix(-0.954436 -0.298414 0.31175 -0.950164 1241.31 2403.98)" stroke="#BA68C8"/>
<rect x="-0.165666" y="-0.684682" width="1324.41" height="1566.15" transform="matrix(-0.855524 -0.517764 0.524193 -0.8516 1004 2468.96)" stroke="#BA68C8"/>
<rect x="-0.00397131" y="-0.707236" width="1316.24" height="1562.08" transform="matrix(-0.710927 -0.703266 0.702984 -0.711205 766.095 2476.78)" stroke="#BA68C8"/>
<rect x="0.153198" y="-0.693192" width="1310.47" height="1555.26" transform="matrix(-0.534492 -0.845174 0.840888 -0.54121 542.821 2432.46)" stroke="#BA68C8"/>
<rect x="0.296548" y="-0.647247" width="1306.52" height="1546.32" transform="matrix(-0.341866 -0.939749 0.934963 -0.354746 346.047 2345.37)" stroke="#BA68C8"/>
<rect x="0.419271" y="-0.576791" width="1303.53" height="1536.24" transform="matrix(-0.147823 -0.989014 0.986366 -0.164569 183.266 2227.55)" stroke="#BA68C8"/>
<rect x="0.517747" y="-0.490636" width="1300.62" height="1526.01" transform="matrix(0.0356584 -0.999364 0.999836 0.0180913 57.3941 2091.93)" stroke="#BA68C8"/>
<rect x="0.591543" y="-0.397652" width="1297.18" height="1516.37" transform="matrix(0.200243 -0.979746 0.982844 0.184442 -32.7357 1950.65)" stroke="#BA68C8"/>
<rect x="0.642815" y="-0.305678" width="1292.86" height="1507.72" transform="matrix(0.341176 -0.939999 0.944454 0.328644 -91.3679 1814.07)" stroke="#BA68C8"/>
<rect x="0.675403" y="-0.220907" width="1287.62" height="1500.16" transform="matrix(0.456681 -0.889631 0.894126 0.447816 -124.643 1690.11)" stroke="#BA68C8"/>
<rect x="0.693895" y="-0.147751" width="1281.59" height="1493.53" transform="matrix(0.547122 -0.837053 0.840667 0.541552 -139.429 1584.27)" stroke="#BA68C8"/>
<rect x="0.70284" y="-0.0890311" width="1274.98" height="1487.58" transform="matrix(0.614148 -0.789191 0.791531 0.611129 -142.36 1499.88)" stroke="#BA68C8"/>
<rect x="0.706193" y="-0.04636" width="1268.03" height="1482.05" transform="matrix(0.659913 -0.751342 0.752474 0.658622 -139.127 1438.67)" stroke="#BA68C8"/>
<rect x="0.706961" y="-0.0205399" width="1260.92" height="1476.72" transform="matrix(0.68643 -0.727196 0.727492 0.686116 -134.033 1401.28)" stroke="#BA68C8"/>
<rect x="-129.258" y="1387.24" width="1253.76" height="1471.44" transform="rotate(-45.9647 -129.258 1387.24)" stroke="#BA68C8"/>
<rect x="-0.560106" y="-0.422162" width="1353.46" height="1558.16" transform="matrix(-0.989129 0.147048 -0.131082 -0.991372 1621.46 2127.25)" stroke="#BA68C8"/>
<rect x="-0.44215" y="-0.544196" width="1340.92" height="1559.21" transform="matrix(-0.995516 -0.0945951 0.111215 -0.993796 1430.03 2291.41)" stroke="#BA68C8"/>
<rect x="-0.299601" y="-0.635224" width="1328.88" height="1559.66" transform="matrix(-0.943433 -0.331563 0.34423 -0.938885 1207.1 2404.63)" stroke="#BA68C8"/>
<rect x="-0.141863" y="-0.690113" width="1318.49" height="1558.19" transform="matrix(-0.83699 -0.547219 0.553263 -0.833007 968.839 2461)" stroke="#BA68C8"/>
<rect x="0.0205343" y="-0.706943" width="1310.41" height="1554.09" transform="matrix(-0.68614 -0.72747 0.727209 -0.686417 731.942 2460.5)" stroke="#BA68C8"/>
<rect x="0.177094" y="-0.687362" width="1304.61" height="1547.36" transform="matrix(-0.505024 -0.863105 0.859212 -0.511619 511.371 2408.65)" stroke="#BA68C8"/>
<rect x="0.318709" y="-0.636417" width="1300.56" height="1538.6" transform="matrix(-0.309358 -0.950946 0.946777 -0.321889 318.618 2315.18)" stroke="#BA68C8"/>
<rect x="0.43886" y="-0.561737" width="1297.42" height="1528.76" transform="matrix(-0.113797 -0.993504 0.991518 -0.12997 160.725 2192.33)" stroke="#BA68C8"/>
<rect x="0.534256" y="-0.472245" width="1294.37" height="1518.76" transform="matrix(0.0699215 -0.997553 0.998591 0.0530634 40.154 2053.04)" stroke="#BA68C8"/>
<rect x="0.60478" y="-0.376801" width="1290.8" height="1509.33" transform="matrix(0.233766 -0.972293 0.975794 0.218691 -44.6748 1909.38)" stroke="#BA68C8"/>
<rect x="0.652854" y="-0.283149" width="1286.39" height="1500.86" transform="matrix(0.373302 -0.92771 0.932406 0.361413 -98.3308 1771.48)" stroke="#BA68C8"/>
<rect x="0.682521" y="-0.197335" width="1281.1" height="1493.41" transform="matrix(0.487063 -0.873367 0.87798 0.478698 -127.195 1647.03)" stroke="#BA68C8"/>
<rect x="0.698508" y="-0.123603" width="1275.06" height="1486.87" transform="matrix(0.575691 -0.817668 0.821325 0.570461 -138.288 1541.23)" stroke="#BA68C8"/>
<rect x="0.70545" y="-0.0646207" width="1268.47" height="1480.98" transform="matrix(0.641067 -0.767485 0.769834 0.638244 -138.32 1457.19)" stroke="#BA68C8"/>
<rect x="0.707352" y="-0.0218636" width="1261.55" height="1475.48" transform="matrix(0.685524 -0.72805 0.72918 0.684323 -133.014 1396.42)" stroke="#BA68C8"/>
<rect x="0.707242" y="0.00396651" width="1254.47" height="1470.17" transform="matrix(0.711207 -0.702983 0.703277 0.710916 -126.67 1359.41)" stroke="#BA68C8"/>
<rect x="-121.422" y="1345.63" width="1247.35" height="1464.92" transform="rotate(-43.9791 -121.422 1345.63)" stroke="#BA68C8"/>
<rect x="-0.543729" y="-0.443427" width="1346.81" height="1550.84" transform="matrix(-0.994066 0.108776 -0.0933919 -0.995629 1591.81 2145.25)" stroke="#BA68C8"/>
<rect x="-0.421155" y="-0.560906" width="1334.56" height="1551.63" transform="matrix(-0.991123 -0.132947 0.148814 -0.988865 1395.27 2301.15)" stroke="#BA68C8"/>
<rect x="-0.275157" y="-0.646401" width="1322.78" height="1551.84" transform="matrix(-0.929957 -0.367669 0.379642 -0.925133 1169.31 2405.2)" stroke="#BA68C8"/>
<rect x="-0.115376" y="-0.695138" width="1312.58" height="1550.23" transform="matrix(-0.815357 -0.578959 0.584606 -0.811318 930.244 2452.11)" stroke="#BA68C8"/>
<rect x="0.0475621" y="-0.705635" width="1304.57" height="1546.1" transform="matrix(-0.657815 -0.753179 0.752939 -0.65809 694.673 2442.53)" stroke="#BA68C8"/>
<rect x="0.203226" y="-0.67998" width="1298.75" height="1539.46" transform="matrix(-0.471777 -0.881718 0.878228 -0.478241 477.27 2382.49)" stroke="#BA68C8"/>
<rect x="0.342729" y="-0.623595" width="1294.6" height="1530.88" transform="matrix(-0.273017 -0.962009 0.958474 -0.28518 289.102 2282.12)" stroke="#BA68C8"/>
<rect x="0.459876" y="-0.54436" width="1291.31" height="1521.27" transform="matrix(-0.0760422 -0.997105 0.995794 -0.0916159 136.711 2153.88)" stroke="#BA68C8"/>
<rect x="0.551743" y="-0.451308" width="1288.11" height="1511.51" transform="matrix(0.107688 -0.994185 0.995799 0.0915685 22.0531 2010.72)" stroke="#BA68C8"/>
<rect x="0.618559" y="-0.353279" width="1284.41" height="1502.29" transform="matrix(0.270486 -0.962724 0.966633 0.256166 -56.8889 1864.59)" stroke="#BA68C8"/>
<rect x="0.663037" y="-0.257899" width="1279.92" height="1493.99" transform="matrix(0.408282 -0.912856 0.917793 0.397059 -105.049 1725.37)" stroke="#BA68C8"/>
<rect x="0.689438" y="-0.171046" width="1274.59" height="1486.67" transform="matrix(0.519952 -0.854196 0.858924 0.512103 -129.057 1600.49)" stroke="#BA68C8"/>
<rect x="0.702634" y="-0.0967783" width="1268.53" height="1480.21" transform="matrix(0.606446 -0.795125 0.798822 0.601568 -136.093 1494.84)" stroke="#BA68C8"/>
<rect x="0.707353" y="-0.0375836" width="1261.95" height="1474.37" transform="matrix(0.669902 -0.74245 0.744805 0.667283 -132.953 1411.26)" stroke="#BA68C8"/>
<rect x="0.707647" y="0.00521144" width="1255.06" height="1468.91" transform="matrix(0.71285 -0.701317 0.702443 0.71174 -125.382 1351.02)" stroke="#BA68C8"/>
<rect x="0.706567" y="0.0310181" width="1248.02" height="1463.63" transform="matrix(0.737572 -0.675268 0.675561 0.737304 -117.677 1314.46)" stroke="#BA68C8"/>
<rect x="-111.917" y="1300.97" width="1240.93" height="1458.39" transform="rotate(-41.7868 -111.917 1300.97)" stroke="#BA68C8"/>
<rect x="-0.525115" y="-0.465677" width="1340.17" height="1543.53" transform="matrix(-0.997735 0.0672664 -0.0524943 -0.998621 1559.1 2164.14)" stroke="#BA68C8"/>
<rect x="-0.39775" y="-0.578037" width="1328.19" height="1544.05" transform="matrix(-0.984721 -0.174139 0.189221 -0.981934 1357.33 2311.03)" stroke="#BA68C8"/>
<rect x="-0.248273" y="-0.657407" width="1316.68" height="1544.03" transform="matrix(-0.913852 -0.406048 0.417306 -0.908766 1128.43 2405.14)" stroke="#BA68C8"/>
<rect x="-0.0865571" y="-0.699418" width="1306.66" height="1542.27" transform="matrix(-0.790638 -0.612284 0.617524 -0.786552 888.813 2441.89)" stroke="#BA68C8"/>
<rect x="0.0766861" y="-0.70306" width="1298.73" height="1538.11" transform="matrix(-0.626129 -0.77972 0.779501 -0.626401 654.974 2422.61)" stroke="#BA68C8"/>
<rect x="0.231119" y="-0.670894" width="1292.89" height="1531.56" transform="matrix(-0.435075 -0.900394 0.897313 -0.441394 441.245 2353.89)" stroke="#BA68C8"/>
<rect x="0.368109" y="-0.608733" width="1288.63" height="1523.16" transform="matrix(-0.233289 -0.972407 0.969508 -0.245059 258.235 2246.28)" stroke="#BA68C8"/>
<rect x="0.481822" y="-0.524714" width="1285.2" height="1513.78" transform="matrix(-0.035102 -0.999384 0.998747 -0.0500452 111.936 2112.44)" stroke="#BA68C8"/>
<rect x="0.56973" y="-0.427971" width="1281.85" height="1504.26" transform="matrix(0.148344 -0.988936 0.991117 0.132995 3.76681 1965.32)" stroke="#BA68C8"/>
<rect x="0.632434" y="-0.327306" width="1278.03" height="1495.26" transform="matrix(0.309745 -0.95082 0.955124 0.296207 -68.7665 1816.72)" stroke="#BA68C8"/>
<rect x="0.672956" y="-0.230212" width="1273.46" height="1487.13" transform="matrix(0.445429 -0.895317 0.900482 0.434894 -110.974 1676.29)" stroke="#BA68C8"/>
<rect x="0.695783" y="-0.142374" width="1268.08" height="1479.93" transform="matrix(0.554651 -0.832083 0.836914 0.547334 -129.749 1551.1)" stroke="#BA68C8"/>
<rect x="0.705941" y="-0.067644" width="1262.01" height="1473.55" transform="matrix(0.638692 -0.769462 0.77319 0.634174 -132.435 1445.75)" stroke="#BA68C8"/>
<rect x="0.708249" y="-0.00831357" width="1255.44" height="1467.77" transform="matrix(0.699963 -0.714179 0.716534 0.697552 -125.901 1362.76)" stroke="#BA68C8"/>
<rect x="0.706803" y="0.0344548" width="1248.57" height="1462.34" transform="matrix(0.741205 -0.671279 0.6724 0.740188 -115.914 1303.18)" stroke="#BA68C8"/>
<rect x="0.704675" y="0.0601951" width="1241.57" height="1457.08" transform="matrix(0.764847 -0.644212 0.644503 0.764602 -106.76 1267.13)" stroke="#BA68C8"/>
<rect x="-100.46" y="1253.98" width="1234.52" height="1451.87" transform="rotate(-39.418 -100.46 1253.98)" stroke="#BA68C8"/>
<rect x="-0.504353" y="-0.488431" width="1333.52" height="1536.21" transform="matrix(-0.999733 0.0230973 -0.00897194 -0.99996 1523.53 2183.25)" stroke="#BA68C8"/>
<rect x="-0.37214" y="-0.59514" width="1321.83" height="1536.47" transform="matrix(-0.976058 -0.217511 0.231778 -0.972769 1316.6 2320.43)" stroke="#BA68C8"/>
<rect x="-0.219254" y="-0.667856" width="1310.58" height="1536.21" transform="matrix(-0.895033 -0.446 0.456524 -0.889711 1084.98 2403.94)" stroke="#BA68C8"/>
<rect x="-0.0557975" y="-0.702649" width="1300.75" height="1534.3" transform="matrix(-0.762917 -0.646496 0.651322 -0.758801 845.177 2429.95)" stroke="#BA68C8"/>
<rect x="0.107454" y="-0.699014" width="1292.9" height="1530.12" transform="matrix(-0.591326 -0.806432 0.806235 -0.591595 613.539 2400.5)" stroke="#BA68C8"/>
<rect x="0.260286" y="-0.660005" width="1287.03" height="1523.66" transform="matrix(-0.395305 -0.91855 0.915877 -0.40146 404.041 2322.79)" stroke="#BA68C8"/>
<rect x="0.394351" y="-0.591839" width="1282.67" height="1515.44" transform="matrix(-0.190678 -0.981653 0.97938 -0.202024 226.755 2207.75)" stroke="#BA68C8"/>
<rect x="0.504208" y="-0.502904" width="1279.1" height="1506.29" transform="matrix(0.00843357 -0.999964 0.999983 -0.00584439 87.1044 2068.23)" stroke="#BA68C8"/>
<rect x="0.587753" y="-0.402425" width="1275.6" height="1497.01" transform="matrix(0.19124 -0.981543 0.984266 0.176693 -14.0641 1917.18)" stroke="#BA68C8"/>
<rect x="0.645979" y="-0.29915" width="1271.65" height="1488.22" transform="matrix(0.350859 -0.936428 0.9411 0.338128 -79.7366 1766.23)" stroke="#BA68C8"/>
<rect x="0.682228" y="-0.200413" width="1266.99" height="1480.26" transform="matrix(0.484047 -0.875042 0.880409 0.474215 -115.614 1624.74)" stroke="#BA68C8"/>
<rect x="0.701221" y="-0.11169" width="1261.56" height="1473.19" transform="matrix(0.590462 -0.807065 0.81198 0.583686 -128.855 1499.43)" stroke="#BA68C8"/>
<rect x="0.708136" y="-0.0366033" width="1255.48" height="1466.89" transform="matrix(0.671737 -0.74079 0.744535 0.667584 -126.959 1394.55)" stroke="#BA68C8"/>
<rect x="0.707878" y="0.0227641" width="1248.93" height="1461.16" transform="matrix(0.730569 -0.682839 0.685187 0.728368 -116.866 1312.33)" stroke="#BA68C8"/>
<rect x="0.704586" y="0.0654269" width="1242.09" height="1455.77" transform="matrix(0.769919 -0.638142 0.639254 0.768996 -104.352 1253.52)" stroke="#BA68C8"/>
<rect x="0.70135" y="0.0910503" width="1235.11" height="1450.54" transform="matrix(0.792367 -0.610045 0.610332 0.792145 -93.6892 1218.09)" stroke="#BA68C8"/>
<rect x="-86.839" y="1205.31" width="1228.1" height="1445.35" transform="rotate(-36.9036 -86.839 1205.31)" stroke="#BA68C8"/>
<rect x="-0.48159" y="-0.511221" width="1326.88" height="1528.89" transform="matrix(-0.999733 -0.0231102 0.0365532 -0.999332 1485.43 2201.9)" stroke="#BA68C8"/>
<rect x="-0.344579" y="-0.611798" width="1315.47" height="1528.89" transform="matrix(-0.964964 -0.262382 0.275807 -0.961213 1273.53 2328.78)" stroke="#BA68C8"/>
<rect x="-0.188449" y="-0.677402" width="1304.47" height="1528.4" transform="matrix(-0.8735 -0.486825 0.496601 -0.867979 1039.52 2401.18)" stroke="#BA68C8"/>
<rect x="-0.023519" y="-0.704576" width="1294.83" height="1526.34" transform="matrix(-0.732363 -0.680915 0.685325 -0.728238 799.98 2416.03)" stroke="#BA68C8"/>
<rect x="0.139395" y="-0.693345" width="1287.06" height="1522.13" transform="matrix(-0.55373 -0.832696 0.832521 -0.553994 571.062 2376.11)" stroke="#BA68C8"/>
<rect x="0.290231" y="-0.647272" width="1281.17" height="1515.75" transform="matrix(-0.352919 -0.935654 0.93338 -0.358889 366.334 2289.23)" stroke="#BA68C8"/>
<rect x="0.42096" y="-0.572975" width="1276.71" height="1507.73" transform="matrix(-0.145738 -0.989323 0.987658 -0.156628 195.314 2166.7)" stroke="#BA68C8"/>
<rect x="0.526561" y="-0.479092" width="1272.99" height="1498.81" transform="matrix(0.0539375 -0.998544 0.999185 0.0403599 62.8128 2021.56)" stroke="#BA68C8"/>
<rect x="0.605377" y="-0.374917" width="1269.34" height="1489.76" transform="matrix(0.235706 -0.971824 0.975049 0.22199 -30.91 1866.73)" stroke="#BA68C8"/>
<rect x="0.658807" y="-0.269124" width="1265.27" height="1481.19" transform="matrix(0.393135 -0.919481 0.924479 0.381232 -89.3533 1713.63)" stroke="#BA68C8"/>
<rect x="0.690518" y="-0.16887" width="1260.52" height="1473.4" transform="matrix(0.523439 -0.852063 0.857597 0.514323 -118.602 1571.29)" stroke="#BA68C8"/>
<rect x="0.705465" y="-0.0793983" width="1255.05" height="1466.45" transform="matrix(0.626696 -0.779263 0.784233 0.620467 -126.085 1446.09)" stroke="#BA68C8"/>
<rect x="0.708975" y="-0.00408936" width="1248.95" height="1460.23" transform="matrix(0.704907 -0.7093 0.713042 0.701121 -119.444 1341.91)" stroke="#BA68C8"/>
<rect x="0.706035" y="0.0551985" width="1242.41" height="1454.55" transform="matrix(0.761064 -0.648677 0.651005 0.759074 -105.684 1260.62)" stroke="#BA68C8"/>
<rect x="0.70082" y="0.0976659" width="1235.6" height="1449.19" transform="matrix(0.798352 -0.602191 0.603289 0.797523 -90.5836 1202.73)" stroke="#BA68C8"/>
<rect x="0.69643" y="0.123116" width="1228.66" height="1443.99" transform="matrix(0.819504 -0.573074 0.573357 0.819306 -78.3765 1167.99)" stroke="#BA68C8"/>
<rect x="-70.9713" y="1155.63" width="1221.69" height="1438.83" transform="rotate(-34.2753 -70.9713 1155.63)" stroke="#BA68C8"/>
<rect x="-0.457033" y="-0.533609" width="1320.23" height="1521.58" transform="matrix(-0.997497 -0.0707048 0.0834312 -0.996514 1445.15 2219.5)" stroke="#BA68C8"/>
<rect x="-0.315372" y="-0.627635" width="1309.11" height="1521.31" transform="matrix(-0.951366 -0.308063 0.320622 -0.947207 1228.63 2335.61)" stroke="#BA68C8"/>
<rect x="-0.156246" y="-0.685755" width="1298.37" height="1520.58" transform="matrix(-0.849347 -0.527835 0.536856 -0.843674 992.686 2396.51)" stroke="#BA68C8"/>
<rect x="0.00983176" y="-0.705009" width="1288.91" height="1518.38" transform="matrix(-0.699229 -0.714897 0.718893 -0.695121 753.922 2399.94)" stroke="#BA68C8"/>
<rect x="0.172028" y="-0.685971" width="1281.23" height="1514.13" transform="matrix(-0.513736 -0.857948 0.857793 -0.513995 528.265 2349.41)" stroke="#BA68C8"/>
<rect x="0.320464" y="-0.63272" width="1275.32" height="1507.85" transform="matrix(-0.308431 -0.951247 0.949359 -0.314193 328.842 2253.34)" stroke="#BA68C8"/>
<rect x="0.447461" y="-0.552274" width="1270.75" height="1500.01" transform="matrix(-0.0990684 -0.995081 0.99399 -0.109467 164.586 2123.42)" stroke="#BA68C8"/>
<rect x="0.548442" y="-0.453499" width="1266.88" height="1491.32" transform="matrix(0.100756 -0.994911 0.996128 0.0879127 39.6715 1972.84)" stroke="#BA68C8"/>
<rect x="0.622211" y="-0.345745" width="1263.09" height="1482.52" transform="matrix(0.281059 -0.959691 0.963363 0.268201 -46.245 1814.47)" stroke="#BA68C8"/>
<rect x="0.670581" y="-0.237588" width="1258.89" height="1474.16" transform="matrix(0.435886 -0.900002 0.905275 0.424826 -97.1742 1659.48)" stroke="#BA68C8"/>
<rect x="0.697544" y="-0.135986" width="1254.05" height="1466.53" transform="matrix(0.562927 -0.826506 0.832161 0.554534 -119.592 1516.58)" stroke="#BA68C8"/>
<rect x="0.708288" y="-0.045935" width="1248.53" height="1459.71" transform="matrix(0.662699 -0.748886 0.753877 0.657016 -121.174 1391.76)" stroke="#BA68C8"/>
<rect x="0.708279" y="0.0294421" width="1242.43" height="1453.57" transform="matrix(0.737573 -0.675268 0.678986 0.734152 -109.701 1288.49)" stroke="#BA68C8"/>
<rect x="0.702579" y="0.0885211" width="1235.9" height="1447.95" transform="matrix(0.790843 -0.612019 0.614315 0.789061 -92.2219 1208.33)" stroke="#BA68C8"/>
<rect x="0.695393" y="0.130696" width="1229.12" height="1442.62" transform="matrix(0.825919 -0.563789 0.564867 0.825182 -74.5016 1151.49)" stroke="#BA68C8"/>
<rect x="0.689822" y="0.155913" width="1222.21" height="1437.44" transform="matrix(0.845685 -0.533683 0.53396 0.84551 -60.7444 1117.53)" stroke="#BA68C8"/>
<rect x="-52.7908" y="1105.62" width="1215.27" height="1432.3" transform="rotate(-31.5645 -52.7908 1105.62)" stroke="#BA68C8"/>
<rect x="-0.430947" y="-0.555201" width="1313.59" height="1514.26" transform="matrix(-0.992892 -0.11902 0.130998 -0.991383 1403.16 2235.55)" stroke="#BA68C8"/>
<rect x="-0.284872" y="-0.642333" width="1302.75" height="1513.73" transform="matrix(-0.935293 -0.353874 0.365549 -0.930792 1182.47 2340.55)" stroke="#BA68C8"/>
<rect x="-0.123062" y="-0.692688" width="1292.27" height="1512.77" transform="matrix(-0.822766 -0.56838 0.576643 -0.816996 945.092 2389.71)" stroke="#BA68C8"/>
<rect x="0.0437928" y="-0.703827" width="1283" height="1510.42" transform="matrix(-0.663859 -0.747858 0.751445 -0.659796 707.649 2381.62)" stroke="#BA68C8"/>
<rect x="0.204874" y="-0.676882" width="1275.39" height="1506.14" transform="matrix(-0.471815 -0.881698 0.881563 -0.472066 485.795 2320.51)" stroke="#BA68C8"/>
<rect x="0.350515" y="-0.616447" width="1269.46" height="1499.95" transform="matrix(-0.262406 -0.964958 0.963437 -0.267935 292.179 2215.38)" stroke="#BA68C8"/>
<rect x="0.473414" y="-0.529928" width="1264.78" height="1492.29" transform="matrix(-0.0512998 -0.998683 0.998127 -0.0611732 135.123 2078.3)" stroke="#BA68C8"/>
<rect x="0.569456" y="-0.426405" width="1260.77" height="1483.83" transform="matrix(0.148222 -0.988954 0.990689 0.136145 18.1516 1922.57)" stroke="#BA68C8"/>
<rect x="0.637917" y="-0.315255" width="1256.83" height="1475.27" transform="matrix(0.326625 -0.945154 0.94921 0.314644 -59.6911 1760.97)" stroke="#BA68C8"/>
<rect x="0.681025" y="-0.204938" width="1252.51" height="1467.12" transform="matrix(0.478448 -0.878116 0.883601 0.46824 -102.923 1604.43)" stroke="#BA68C8"/>
<rect x="0.703095" y="-0.102194" width="1247.59" height="1459.67" transform="matrix(0.601874 -0.798591 0.804316 0.594202 -118.39 1461.28)" stroke="#BA68C8"/>
<rect x="0.709534" y="-0.0117554" width="1242.02" height="1452.97" transform="matrix(0.697862 -0.716232 0.721206 0.692721 -114.013 1337.11)" stroke="#BA68C8"/>
<rect x="0.705942" y="0.0635222" width="1235.9" height="1446.92" transform="matrix(0.769162 -0.639054 0.642723 0.766099 -97.6904 1235)" stroke="#BA68C8"/>
<rect x="0.697444" y="0.122257" width="1229.39" height="1441.34" transform="matrix(0.819365 -0.573272 0.575523 0.817786 -76.4971 1156.15)" stroke="#BA68C8"/>
<rect x="0.688265" y="0.16404" width="1222.63" height="1436.05" transform="matrix(0.852102 -0.523375 0.524427 0.851455 -56.1776 1100.5)" stroke="#BA68C8"/>
<rect x="0.681504" y="0.188963" width="1215.76" height="1430.9" transform="matrix(0.870409 -0.49233 0.492599 0.870256 -40.8876 1067.4)" stroke="#BA68C8"/>
<rect x="-32.4049" y="1055.98" width="1208.86" height="1425.78" transform="rotate(-28.8032 -32.4049 1055.98)" stroke="#BA68C8"/>
<rect x="-0.40365" y="-0.575656" width="1306.95" height="1506.95" transform="matrix(-0.985891 -0.167388 0.178591 -0.983923 1359.96 2249.59)" stroke="#BA68C8"/>
<rect x="-0.253469" y="-0.655636" width="1296.39" height="1506.15" transform="matrix(-0.916881 -0.399161 0.409942 -0.912112 1135.64 2343.26)" stroke="#BA68C8"/>
<rect x="-0.0893393" y="-0.698048" width="1286.17" height="1504.96" transform="matrix(-0.794047 -0.607856 0.615368 -0.788239 897.408 2380.62)" stroke="#BA68C8"/>
<rect x="0.0778974" y="-0.700984" width="1277.08" height="1502.45" transform="matrix(-0.626676 -0.77928 0.78247 -0.622688 661.844 2361.05)" stroke="#BA68C8"/>
<rect x="0.237466" y="-0.666141" width="1269.56" height="1498.15" transform="matrix(-0.428496 -0.903544 0.903429 -0.428738 444.31 2289.54)" stroke="#BA68C8"/>
<rect x="0.379943" y="-0.598619" width="1263.6" height="1492.05" transform="matrix(-0.215451 -0.976515 0.975336 -0.220724 256.946 2175.62)" stroke="#BA68C8"/>
<rect x="0.498421" y="-0.506197" width="1258.82" height="1484.57" transform="matrix(-0.0030814 -0.999995 0.999923 -0.0123981 107.446 2031.71)" stroke="#BA68C8"/>
<rect x="0.589264" y="-0.39814" width="1254.67" height="1476.34" transform="matrix(0.195675 -0.980669 0.982853 0.184389 -1.32418 1871.22)" stroke="#BA68C8"/>
<rect x="0.652224" y="-0.283835" width="1250.57" height="1468.02" transform="matrix(0.37175 -0.928333 0.932697 0.360662 -70.9271 1706.78)" stroke="#BA68C8"/>
<rect x="0.689936" y="-0.171602" width="1246.13" height="1460.09" transform="matrix(0.520198 -0.854046 0.859675 0.510842 -106.377 1549.05)" stroke="#BA68C8"/>
<rect x="0.707031" y="-0.0679465" width="1241.12" height="1452.8" transform="matrix(0.639694 -0.768629 0.774367 0.632736 -114.876 1405.99)" stroke="#BA68C8"/>
<rect x="0.709123" y="0.0226748" width="1235.51" height="1446.23" transform="matrix(0.731646 -0.681685 0.686601 0.727035 -104.566 1282.75)" stroke="#BA68C8"/>
<rect x="0.701933" y="0.0976805" width="1229.38" height="1440.26" transform="matrix(0.799174 -0.601099 0.604691 0.79646 -83.4415 1182.03)" stroke="#BA68C8"/>
<rect x="0.690637" y="0.155934" width="1222.87" height="1434.73" transform="matrix(0.846168 -0.532916 0.535107 0.844784 -58.5944 1104.67)" stroke="#BA68C8"/>
<rect x="0.679472" y="0.197228" width="1216.14" height="1429.48" transform="matrix(0.876471 -0.481454 0.482474 0.87591 -35.73 1050.33)" stroke="#BA68C8"/>
<rect x="0.671529" y="0.221799" width="1209.31" height="1424.35" transform="matrix(0.893263 -0.449534 0.449795 0.893132 -18.9461 1018.17)" stroke="#BA68C8"/>
<rect x="-9.95828" y="1007.26" width="1202.44" height="1419.26" transform="rotate(-26.0227 -9.95828 1007.26)" stroke="#BA68C8"/>
<rect x="-0.375506" y="-0.594694" width="1300.3" height="1499.63" transform="matrix(-0.976579 -0.215159 0.225566 -0.974228 1316.13 2261.3)" stroke="#BA68C8"/>
<rect x="-0.221584" y="-0.667362" width="1290.02" height="1498.58" transform="matrix(-0.896366 -0.443314 0.453198 -0.89141 1088.76 2343.59)" stroke="#BA68C8"/>
<rect x="-0.0555305" y="-0.701757" width="1280.07" height="1497.14" transform="matrix(-0.763566 -0.64573 0.652505 -0.757785 850.249 2369.23)" stroke="#BA68C8"/>
<rect x="0.111687" y="-0.696514" width="1271.17" height="1494.49" transform="matrix(-0.588171 -0.808737 0.811545 -0.584291 617.11 2338.4)" stroke="#BA68C8"/>
<rect x="0.269365" y="-0.653887" width="1263.72" height="1490.16" transform="matrix(-0.384357 -0.923184 0.923088 -0.38459 404.365 2256.79)" stroke="#BA68C8"/>
<rect x="0.408347" y="-0.579471" width="1257.74" height="1484.15" transform="matrix(-0.168195 -0.985754 0.984889 -0.173189 223.622 2134.48)" stroke="#BA68C8"/>
<rect x="0.522141" y="-0.481393" width="1252.86" height="1476.85" transform="matrix(0.0449366 -0.99899 0.999344 0.0362046 81.9387 1984.18)" stroke="#BA68C8"/>
<rect x="0.607594" y="-0.369081" width="1248.56" height="1468.86" transform="matrix(0.242471 -0.970159 0.972717 0.231996 -18.4776 1819.36)" stroke="#BA68C8"/>
<rect x="0.66493" y="-0.251906" width="1244.32" height="1460.77" transform="matrix(0.415824 -0.909445 0.914036 0.405633 -79.7837 1652.51)" stroke="#BA68C8"/>
<rect x="0.697187" y="-0.138027" width="1239.75" height="1453.05" transform="matrix(0.560566 -0.82811 0.833807 0.552056 -107.467 1493.98)" stroke="#BA68C8"/>
<rect x="0.709291" y="-0.033703" width="1234.65" height="1445.94" transform="matrix(0.675872 -0.737019 0.74271 0.669613 -109.073 1351.34)" stroke="#BA68C8"/>
<rect x="0.707053" y="0.0568925" width="1228.99" height="1439.48" transform="matrix(0.763587 -0.645705 0.650519 0.75949 -92.9324 1229.32)" stroke="#BA68C8"/>
<rect x="0.696298" y="0.131456" width="1222.85" height="1433.6" transform="matrix(0.8272 -0.561907 0.565396 0.82482 -67.1239 1130.22)" stroke="#BA68C8"/>
<rect x="0.682244" y="0.189099" width="1216.36" height="1428.13" transform="matrix(0.870884 -0.491489 0.493604 0.869687 -38.7338 1054.51)" stroke="#BA68C8"/>
<rect x="0.669128" y="0.229812" width="1209.66" height="1422.91" transform="matrix(0.898689 -0.438586 0.439567 0.89821 -13.416 1001.59)" stroke="#BA68C8"/>
<rect x="0.660025" y="0.253976" width="1202.86" height="1417.81" transform="matrix(0.913932 -0.405868 0.406119 0.91382 4.80132 970.434)" stroke="#BA68C8"/>
<rect x="14.2583" y="960.059" width="1196.03" height="1412.74" transform="rotate(-23.2539 14.2583 960.059)" stroke="#BA68C8"/>
<rect x="-0.346915" y="-0.612105" width="1293.66" height="1492.32" transform="matrix(-0.965144 -0.261718 0.271315 -0.962491 1272.24 2270.46)" stroke="#BA68C8"/>
<rect x="-0.189654" y="-0.677401" width="1283.66" height="1491" transform="matrix(-0.874082 -0.485779 0.494773 -0.869022 1042.46 2341.47)" stroke="#BA68C8"/>
<rect x="-0.0220874" y="-0.703815" width="1273.97" height="1489.33" transform="matrix(-0.731777 -0.681544 0.687603 -0.726087 804.255 2355.61)" stroke="#BA68C8"/>
<rect x="0.144721" y="-0.690522" width="1265.25" height="1486.53" transform="matrix(-0.548895 -0.835891 0.838337 -0.545153 574.046 2313.88)" stroke="#BA68C8"/>
<rect x="0.300166" y="-0.640327" width="1257.89" height="1482.17" transform="matrix(-0.34001 -0.940422 0.940342 -0.340231 366.486 2222.63)" stroke="#BA68C8"/>
<rect x="0.435378" y="-0.559295" width="1251.88" height="1476.25" transform="matrix(-0.121278 -0.992619 0.992034 -0.125971 192.644 2092.42)" stroke="#BA68C8"/>
<rect x="0.544293" y="-0.455876" width="1246.9" height="1469.13" transform="matrix(0.0921193 -0.995748 0.996466 0.0839954 58.9269 1936.26)" stroke="#BA68C8"/>
<rect x="0.624242" y="-0.339637" width="1242.45" height="1461.37" transform="matrix(0.288005 -0.957629 0.960478 0.278354 -33.0946 1767.6)" stroke="#BA68C8"/>
<rect x="0.675912" y="-0.219906" width="1238.06" height="1453.53" transform="matrix(0.458288 -0.888804 0.893536 0.448992 -86.1561 1598.8)" stroke="#BA68C8"/>
<rect x="0.702726" y="-0.104666" width="1233.37" height="1446.02" transform="matrix(0.599056 -0.800707 0.806396 0.591376 -106.2 1439.89)" stroke="#BA68C8"/>
<rect x="0.709892" y="8.04663e-05" width="1228.19" height="1439.07" transform="matrix(0.709972 -0.70423 0.709813 0.704391 -101.075 1298)" stroke="#BA68C8"/>
<rect x="0.703398" y="0.0904478" width="1222.48" height="1432.74" transform="matrix(0.793314 -0.608813 0.613482 0.789708 -79.2871 1177.45)" stroke="#BA68C8"/>
<rect x="0.689159" y="0.164411" width="1216.32" height="1426.94" transform="matrix(0.852923 -0.522037 0.525394 0.850859 -48.9713 1080.15)" stroke="#BA68C8"/>
<rect x="0.67242" y="0.221325" width="1209.85" height="1421.52" transform="matrix(0.893244 -0.449573 0.451597 0.892222 -17.1942 1006.23)" stroke="#BA68C8"/>
<rect x="0.657413" y="0.261376" width="1203.17" height="1416.33" transform="matrix(0.918523 -0.395368 0.396303 0.91812 10.4597 954.832)" stroke="#BA68C8"/>
<rect x="0.647189" y="0.285086" width="1196.41" height="1411.26" transform="matrix(0.932202 -0.361938 0.362176 0.93211 30.0285 924.723)" stroke="#BA68C8"/>
<rect x="39.917" y="914.89" width="1189.61" height="1406.21" transform="rotate(-20.5271 39.917 914.89)" stroke="#BA68C8"/>
<rect x="-0.318297" y="-0.627749" width="1287.01" height="1485" transform="matrix(-0.951872 -0.306497 0.315277 -0.949 1228.91 2276.96)" stroke="#BA68C8"/>
<rect x="-0.158123" y="-0.685719" width="1277.3" height="1483.42" transform="matrix(-0.850439 -0.526074 0.534192 -0.845363 997.333 2336.92)" stroke="#BA68C8"/>
<rect x="0.010551" y="-0.704296" width="1267.87" height="1481.51" transform="matrix(-0.699197 -0.714929 0.720299 -0.693664 759.993 2339.97)" stroke="#BA68C8"/>
<rect x="0.176589" y="-0.683186" width="1259.34" height="1478.57" transform="matrix(-0.509436 -0.860509 0.862614 -0.505863 533.154 2287.82)" stroke="#BA68C8"/>
<rect x="0.329509" y="-0.625726" width="1252.05" height="1474.18" transform="matrix(-0.29608 -0.955163 0.955098 -0.296289 331.087 2187.49)" stroke="#BA68C8"/>
<rect x="0.460745" y="-0.538431" width="1246.02" height="1468.35" transform="matrix(-0.075328 -0.997159 0.996819 -0.0797025 164.308 2049.99)" stroke="#BA68C8"/>
<rect x="0.564665" y="-0.430043" width="1240.93" height="1461.42" transform="matrix(0.137863 -0.990451 0.991466 0.130365 38.5968 1888.52)" stroke="#BA68C8"/>
<rect x="0.639078" y="-0.310238" width="1236.35" height="1453.89" transform="matrix(0.331722 -0.943377 0.946433 0.322901 -45.1074 1716.57)" stroke="#BA68C8"/>
<rect x="0.685119" y="-0.188282" width="1231.81" height="1446.28" transform="matrix(0.498651 -0.866803 0.871588 0.490239 -90.0881 1546.27)" stroke="#BA68C8"/>
<rect x="0.706579" y="-0.071968" width="1226.99" height="1438.98" transform="matrix(0.635246 -0.77231 0.777912 0.628374 -102.71 1387.33)" stroke="#BA68C8"/>
<rect x="0.708925" y="0.0329642" width="1221.72" height="1432.21" transform="matrix(0.741649 -0.670788 0.676202 0.736716 -91.1009 1246.49)" stroke="#BA68C8"/>
<rect x="0.698304" y="0.122917" width="1215.97" height="1426" transform="matrix(0.820549 -0.571576 0.576058 0.817409 -63.9162 1127.65)" stroke="#BA68C8"/>
<rect x="0.680704" y="0.196139" width="1209.8" height="1420.28" transform="matrix(0.876127 -0.482081 0.485281 0.874358 -29.3234 1032.31)" stroke="#BA68C8"/>
<rect x="0.661389" y="0.252223" width="1203.33" height="1414.91" transform="matrix(0.913082 -0.407777 0.409697 0.912222 5.64751 960.293)" stroke="#BA68C8"/>
<rect x="0.644573" y="0.291545" width="1196.69" height="1409.76" transform="matrix(0.935842 -0.352419 0.353303 0.935509 35.4852 910.471)" stroke="#BA68C8"/>
<rect x="0.633279" y="0.314764" width="1189.95" height="1404.71" transform="matrix(0.947968 -0.318365 0.31859 0.947893 56.3135 881.442)" stroke="#BA68C8"/>
<rect x="66.5883" y="872.158" width="1183.2" height="1399.69" transform="rotate(-17.8714 66.5883 872.158)" stroke="#BA68C8"/>
<rect x="-0.290088" y="-0.641556" width="1280.37" height="1477.69" transform="matrix(-0.937127 -0.348989 0.356952 -0.934123 1186.73 2280.78)" stroke="#BA68C8"/>
<rect x="-0.127428" y="-0.692353" width="1270.94" height="1475.84" transform="matrix(-0.825915 -0.563795 0.571058 -0.82091 953.978 2330.08)" stroke="#BA68C8"/>
<rect x="0.0419689" y="-0.70334" width="1261.77" height="1473.7" transform="matrix(-0.666385 -0.745608 0.750323 -0.661071 718.016 2322.55)" stroke="#BA68C8"/>
<rect x="0.206921" y="-0.674739" width="1253.42" height="1470.6" transform="matrix(-0.470402 -0.882453 0.884243 -0.467026 494.907 2260.59)" stroke="#BA68C8"/>
<rect x="0.357088" y="-0.6104" width="1246.22" height="1466.19" transform="matrix(-0.25319 -0.967417 0.967366 -0.253384 298.54 2151.83)" stroke="#BA68C8"/>
<rect x="0.484219" y="-0.517256" width="1240.16" height="1460.45" transform="matrix(-0.0309499 -0.999521 0.999388 -0.0349901 138.879 2007.67)" stroke="#BA68C8"/>
<rect x="0.583111" y="-0.40431" width="1234.97" height="1453.7" transform="matrix(0.181609 -0.983371 0.984613 0.17475 21.0901 1841.51)" stroke="#BA68C8"/>
<rect x="0.652042" y="-0.281322" width="1230.24" height="1446.4" transform="matrix(0.373129 -0.92778 0.930955 0.365135 -54.4934 1666.8)" stroke="#BA68C8"/>
<rect x="0.692574" y="-0.157476" width="1225.55" height="1439.03" transform="matrix(0.536496 -0.843903 0.848652 0.528951 -91.6645 1495.46)" stroke="#BA68C8"/>
<rect x="0.708841" y="-0.0403653" width="1220.61" height="1431.95" transform="matrix(0.668804 -0.743439 0.748878 0.662708 -97.1803 1336.85)" stroke="#BA68C8"/>
<rect x="0.706547" y="0.064535" width="1215.25" height="1425.35" transform="matrix(0.770648 -0.637261 0.642446 0.766331 -79.4224 1197.32)" stroke="#BA68C8"/>
<rect x="0.691978" y="0.15391" width="1209.45" height="1419.26" transform="matrix(0.845113 -0.534588 0.538842 0.842407 -47.1535 1080.36)" stroke="#BA68C8"/>
<rect x="0.671181" y="0.226274" width="1203.27" height="1413.62" transform="matrix(0.896694 -0.44265 0.445668 0.895198 -8.56471 987.111)" stroke="#BA68C8"/>
<rect x="0.649427" y="0.281449" width="1196.82" height="1408.31" transform="matrix(0.930331 -0.36672 0.368523 0.929619 29.3712 917.064)" stroke="#BA68C8"/>
<rect x="0.630904" y="0.319993" width="1190.2" height="1403.19" transform="matrix(0.950619 -0.310361 0.311189 0.950348 61.2245 868.856)" stroke="#BA68C8"/>
<rect x="0.618603" y="0.342694" width="1183.5" height="1398.17" transform="matrix(0.961222 -0.275774 0.275984 0.961162 83.2048 840.923)" stroke="#BA68C8"/>
<rect x="93.8233" y="832.181" width="1176.78" height="1393.17" transform="rotate(-15.315 93.8233 832.181)" stroke="#BA68C8"/>
<rect x="-0.262716" y="-0.653523" width="1273.73" height="1470.37" transform="matrix(-0.921341 -0.388756 0.395908 -0.91829 1146.29 2281.99)" stroke="#BA68C8"/>
<rect x="-0.0979885" y="-0.697401" width="1264.58" height="1468.26" transform="matrix(-0.801033 -0.59862 0.605056 -0.796183 912.931 2321.17)" stroke="#BA68C8"/>
<rect x="0.0717828" y="-0.701143" width="1255.67" height="1465.89" transform="matrix(-0.633926 -0.773393 0.777492 -0.628893 678.751 2303.69)" stroke="#BA68C8"/>
<rect x="0.23539" y="-0.665467" width="1247.5" height="1462.64" transform="matrix(-0.432404 -0.90168 0.903184 -0.429254 459.638 2232.63)" stroke="#BA68C8"/>
<rect x="0.38265" y="-0.594702" width="1240.38" height="1458.2" transform="matrix(-0.211943 -0.977282 0.977243 -0.212122 269.065 2116.15)" stroke="#BA68C8"/>
<rect x="0.505631" y="-0.496169" width="1234.3" height="1452.55" transform="matrix(0.0112915 -0.999936 0.999971 0.00759806 116.455 1966.03)" stroke="#BA68C8"/>
<rect x="0.599553" y="-0.379105" width="1229.01" height="1445.98" transform="matrix(0.222856 -0.974851 0.976251 0.216642 6.38096 1795.81)" stroke="#BA68C8"/>
<rect x="0.663141" y="-0.253324" width="1224.13" height="1438.91" transform="matrix(0.411801 -0.911274 0.914482 0.404627 -61.39 1618.86)" stroke="#BA68C8"/>
<rect x="0.698363" y="-0.127913" width="1219.3" height="1431.79" transform="matrix(0.571488 -0.82061 0.825239 0.564784 -91.1284 1446.9)" stroke="#BA68C8"/>
<rect x="0.709667" y="-0.0102628" width="1214.23" height="1424.92" transform="matrix(0.69948 -0.714652 0.719853 0.694126 -89.9415 1288.94)" stroke="#BA68C8"/>
<rect x="0.702971" y="0.0944152" width="1208.79" height="1418.48" transform="matrix(0.796806 -0.604235 0.609136 0.793065 -66.4264 1150.94)" stroke="#BA68C8"/>
<rect x="0.684679" y="0.183079" width="1202.94" height="1412.52" transform="matrix(0.866917 -0.498453 0.502442 0.864611 -29.4403 1036.01)" stroke="#BA68C8"/>
<rect x="0.660885" y="0.254499" width="1196.75" height="1406.96" transform="matrix(0.914602 -0.404355 0.407169 0.913353 12.8298 944.914)" stroke="#BA68C8"/>
<rect x="0.636853" y="0.308713" width="1190.31" height="1401.7" transform="matrix(0.94502 -0.327014 0.328687 0.944439 53.4746 876.868)" stroke="#BA68C8"/>
<rect x="0.616742" y="0.346449" width="1183.71" height="1396.62" transform="matrix(0.962916 -0.269803 0.270568 0.962701 87.1576 830.282)" stroke="#BA68C8"/>
<rect x="0.603508" y="0.368617" width="1177.05" height="1391.62" transform="matrix(0.972051 -0.23477 0.234964 0.972004 110.175 803.438)" stroke="#BA68C8"/>
<rect x="121.088" y="795.225" width="1170.37" height="1386.65" transform="rotate(-12.8844 121.088 795.225)" stroke="#BA68C8"/>
<rect x="-0.236601" y="-0.663704" width="1267.08" height="1463.06" transform="matrix(-0.90499 -0.425432 0.431788 -0.901975 1108.13 2280.74)" stroke="#BA68C8"/>
<rect x="-0.0701961" y="-0.701019" width="1258.22" height="1460.69" transform="matrix(-0.776344 -0.630309 0.635952 -0.771729 874.675 2310.45)" stroke="#BA68C8"/>
<rect x="0.0996485" y="-0.69795" width="1249.57" height="1458.07" transform="matrix(-0.602412 -0.798185 0.801709 -0.597715 642.636 2283.77)" stroke="#BA68C8"/>
<rect x="0.26172" y="-0.655686" width="1241.59" height="1454.68" transform="matrix(-0.39604 -0.918233 0.919479 -0.393138 427.68 2204.41)" stroke="#BA68C8"/>
<rect x="0.406" y="-0.579005" width="1234.55" height="1450.21" transform="matrix(-0.172909 -0.984938 0.984909 -0.173073 242.878 2081.02)" stroke="#BA68C8"/>
<rect x="0.524875" y="-0.47558" width="1228.44" height="1444.65" transform="matrix(0.0508815 -0.998705 0.998869 0.0475443 97.1314 1925.67)" stroke="#BA68C8"/>
<rect x="0.613973" y="-0.354849" width="1223.05" height="1438.26" transform="matrix(0.261163 -0.965295 0.966784 0.255597 -5.55487 1752)" stroke="#BA68C8"/>
<rect x="0.672443" y="-0.22666" width="1218.03" height="1431.43" transform="matrix(0.447388 -0.89434 0.897498 0.441019 -65.9289 1573.33)" stroke="#BA68C8"/>
<rect x="0.702628" y="-0.0999934" width="1213.04" height="1424.54" transform="matrix(0.603369 -0.797462 0.801887 0.597476 -88.7017 1401.13)" stroke="#BA68C8"/>
<rect x="0.709262" y="0.0179693" width="1207.85" height="1417.88" transform="matrix(0.727111 -0.68652 0.691414 0.722459 -81.2896 1244.08)" stroke="#BA68C8"/>
<rect x="0.698455" y="0.122269" width="1202.32" height="1411.62" transform="matrix(0.820044 -0.572301 0.576866 0.816839 -52.4741 1107.77)" stroke="#BA68C8"/>
<rect x="0.676706" y="0.210125" width="1196.43" height="1405.78" transform="matrix(0.885957 -0.463767 0.467456 0.884017 -11.1832 994.937)" stroke="#BA68C8"/>
<rect x="0.650143" y="0.280546" width="1190.22" height="1400.3" transform="matrix(0.929909 -0.367789 0.370377 0.928882 34.4202 906.023)" stroke="#BA68C8"/>
<rect x="0.624016" y="0.333774" width="1183.79" height="1395.09" transform="matrix(0.957256 -0.289244 0.290777 0.956791 77.4999 839.967)" stroke="#BA68C8"/>
<rect x="0.60245" y="0.370694" width="1177.23" height="1390.05" transform="matrix(0.972877 -0.231322 0.232022 0.972711 112.81 794.977)" stroke="#BA68C8"/>
<rect x="0.588361" y="0.392328" width="1170.6" height="1385.08" transform="matrix(0.980618 -0.195927 0.196104 0.980583 136.746 769.196)" stroke="#BA68C8"/>
<rect x="147.908" y="761.488" width="1163.95" height="1380.13" transform="rotate(-10.6046 147.908 761.488)" stroke="#BA68C8"/>
<rect x="-0.212136" y="-0.672202" width="1260.44" height="1455.74" transform="matrix(-0.888577 -0.458728 0.464304 -0.885676 1072.74 2277.26)" stroke="#BA68C8"/>
<rect x="-0.044409" y="-0.7034" width="1251.86" height="1453.11" transform="matrix(-0.752405 -0.6587 0.663587 -0.748099 839.642 2298.26)" stroke="#BA68C8"/>
<rect x="0.125266" y="-0.694036" width="1243.47" height="1450.26" transform="matrix(-0.572421 -0.81996 0.822952 -0.568111 609.997 2263.22)" stroke="#BA68C8"/>
<rect x="0.285683" y="-0.645736" width="1235.67" height="1446.72" transform="matrix(-0.361877 -0.932226 0.933243 -0.359246 399.244 2176.4)" stroke="#BA68C8"/>
<rect x="0.426996" y="-0.563692" width="1228.71" height="1442.21" transform="matrix(-0.136613 -0.990625 0.990604 -0.13676 220.058 2046.89)" stroke="#BA68C8"/>
<rect x="0.541898" y="-0.455894" width="1222.58" height="1436.75" transform="matrix(0.087363 -0.996177 0.996433 0.0843887 80.8531 1887.02)" stroke="#BA68C8"/>
<rect x="0.626405" y="-0.33195" width="1217.09" height="1430.54" transform="matrix(0.296159 -0.955139 0.956651 0.291238 -14.8783 1710.51)" stroke="#BA68C8"/>
<rect x="0.680061" y="-0.201725" width="1211.92" height="1423.94" transform="matrix(0.479613 -0.87748 0.880509 0.47403 -68.3747 1530.59)" stroke="#BA68C8"/>
<rect x="0.705552" y="-0.074081" width="1206.79" height="1417.29" transform="matrix(0.631958 -0.775003 0.779147 0.626841 -84.7314 1358.47)" stroke="#BA68C8"/>
<rect x="0.70787" y="0.0440018" width="1201.47" height="1410.85" transform="matrix(0.751607 -0.659611 0.664133 0.747614 -71.6405 1202.54)" stroke="#BA68C8"/>
<rect x="0.693286" y="0.147806" width="1195.85" height="1404.76" transform="matrix(0.840357 -0.542033 0.546214 0.837646 -38.0326 1068.02)" stroke="#BA68C8"/>
<rect x="0.668381" y="0.234795" width="1189.91" height="1399.04" transform="matrix(0.902303 -0.431102 0.434458 0.900692 7.12149 957.312)" stroke="#BA68C8"/>
<rect x="0.639301" y="0.3042" width="1183.7" height="1393.65" transform="matrix(0.942745 -0.333513 0.335857 0.941913 55.6883 870.552)" stroke="#BA68C8"/>
<rect x="0.611279" y="0.356446" width="1177.28" height="1388.49" transform="matrix(0.967215 -0.253959 0.255343 0.966851 100.911 806.432)" stroke="#BA68C8"/>
<rect x="0.5884" y="0.392564" width="1170.74" height="1383.48" transform="matrix(0.980712 -0.195458 0.196089 0.980586 137.647 762.981)" stroke="#BA68C8"/>
<rect x="0.573544" y="0.413677" width="1164.15" height="1378.53" transform="matrix(0.987154 -0.159774 0.159934 0.987128 162.376 738.217)" stroke="#BA68C8"/>
<rect x="173.742" y="730.986" width="1157.54" height="1373.6" transform="rotate(-8.49898 173.742 730.986)" stroke="#BA68C8"/>
<rect x="-0.189684" y="-0.679158" width="1253.8" height="1448.43" transform="matrix(-0.872607 -0.488423 0.493239 -0.869894 1040.57 2271.8)" stroke="#BA68C8"/>
<rect x="-0.0209457" y="-0.704767" width="1245.5" height="1445.53" transform="matrix(-0.729762 -0.683701 0.687871 -0.725833 808.189 2284.94)" stroke="#BA68C8"/>
<rect x="0.148378" y="-0.689693" width="1237.37" height="1442.45" transform="matrix(-0.544505 -0.838758 0.841261 -0.540629 581.08 2242.45)" stroke="#BA68C8"/>
<rect x="0.307102" y="-0.635962" width="1229.76" height="1438.76" transform="matrix(-0.330441 -0.943827 0.944644 -0.328098 374.467 2149.09)" stroke="#BA68C8"/>
<rect x="0.445544" y="-0.549141" width="1222.88" height="1434.22" transform="matrix(-0.103525 -0.994627 0.994613 -0.103655 200.641 2014.3)" stroke="#BA68C8"/>
<rect x="0.556693" y="-0.437499" width="1216.73" height="1428.85" transform="matrix(0.120341 -0.992733 0.993045 0.117734 67.5589 1850.64)" stroke="#BA68C8"/>
<rect x="0.636925" y="-0.310791" width="1211.12" height="1422.83" transform="matrix(0.327538 -0.944838 0.946311 0.323257 -21.76 1671.89)" stroke="#BA68C8"/>
<rect x="0.686146" y="-0.178877" width="1205.81" height="1416.46" transform="matrix(0.508266 -0.8612 0.864026 0.503447 -68.9827 1491.12)" stroke="#BA68C8"/>
<rect x="0.707351" y="-0.0505013" width="1200.54" height="1410.05" transform="matrix(0.657141 -0.753768 0.75756 0.652765 -79.5493 1319.37)" stroke="#BA68C8"/>
<rect x="0.705755" y="0.0675492" width="1195.09" height="1403.82" transform="matrix(0.772947 -0.634471 0.638563 0.769569 -61.377 1164.69)" stroke="#BA68C8"/>
<rect x="0.687768" y="0.170783" width="1189.39" height="1397.89" transform="matrix(0.857804 -0.513977 0.517731 0.855543 -23.5199 1032.01)" stroke="#BA68C8"/>
<rect x="0.660035" y="0.256887" width="1183.4" height="1392.3" transform="matrix(0.916083 -0.40099 0.403988 0.914764 25.0258 923.39)" stroke="#BA68C8"/>
<rect x="0.628712" y="0.325293" width="1177.17" height="1386.99" transform="matrix(0.953294 -0.302045 0.30413 0.952631 76.1687 838.705)" stroke="#BA68C8"/>
<rect x="0.599006" y="0.376592" width="1170.77" height="1381.88" transform="matrix(0.975124 -0.221661 0.222888 0.974844 123.242 776.435)" stroke="#BA68C8"/>
<rect x="0.574966" y="0.411944" width="1164.26" height="1376.9" transform="matrix(0.986676 -0.162697 0.163255 0.986584 161.194 734.437)" stroke="#BA68C8"/>
<rect x="0.55943" y="0.432561" width="1157.7" height="1371.98" transform="matrix(0.99193 -0.12679 0.126931 0.991912 186.592 710.628)" stroke="#BA68C8"/>
<rect x="198.12" y="703.835" width="1151.12" height="1367.08" transform="rotate(-6.58876 198.12 703.835)" stroke="#BA68C8"/>
<rect x="-0.169571" y="-0.684737" width="1247.16" height="1441.12" transform="matrix(-0.857576 -0.514357 0.518435 -0.855117 1011.98 2264.63)" stroke="#BA68C8"/>
<rect x="-8.21054e-05" y="-0.70536" width="1239.14" height="1437.96" transform="matrix(-0.708932 -0.705277 0.708768 -0.705442 780.611 2270.85)" stroke="#BA68C8"/>
<rect x="0.168776" y="-0.68522" width="1231.27" height="1434.64" transform="matrix(-0.519173 -0.854669 0.856726 -0.515771 556.102 2221.9)" stroke="#BA68C8"/>
<rect x="0.325842" y="-0.626704" width="1223.84" height="1430.79" transform="matrix(-0.302204 -0.953243 0.953887 -0.300165 353.461 2122.92)" stroke="#BA68C8"/>
<rect x="0.461594" y="-0.535712" width="1217.04" height="1426.23" transform="matrix(-0.0740575 -0.997254 0.997246 -0.0741696 184.626 1983.7)" stroke="#BA68C8"/>
<rect x="0.569291" y="-0.420759" width="1210.87" height="1420.95" transform="matrix(0.149483 -0.988764 0.9891 0.147246 57.1386 1816.97)" stroke="#BA68C8"/>
<rect x="0.64564" y="-0.291717" width="1205.16" height="1415.11" transform="matrix(0.355059 -0.934844 0.936222 0.351409 -26.4003 1636.5)" stroke="#BA68C8"/>
<rect x="0.690873" y="-0.158435" width="1199.71" height="1408.97" transform="matrix(0.533199 -0.84599 0.848547 0.529121 -68.0333 1455.28)" stroke="#BA68C8"/>
<rect x="0.708253" y="-0.0295367" width="1194.28" height="1402.8" transform="matrix(0.678863 -0.734265 0.737643 0.675191 -73.491 1284.1)" stroke="#BA68C8"/>
<rect x="0.70319" y="0.0883713" width="1188.71" height="1396.78" transform="matrix(0.791158 -0.611611 0.615222 0.788354 -50.8841 1130.76)" stroke="#BA68C8"/>
<rect x="0.682207" y="0.191003" width="1182.92" height="1391.03" transform="matrix(0.87249 -0.488633 0.491924 0.870638 -9.35267 999.883)" stroke="#BA68C8"/>
<rect x="0.651997" y="0.276244" width="1176.89" height="1385.56" transform="matrix(0.927463 -0.373916 0.376532 0.926404 42.0956 893.26)" stroke="#BA68C8"/>
<rect x="0.618717" y="0.343702" width="1170.64" height="1380.33" transform="matrix(0.961773 -0.27385 0.275662 0.961255 95.423 810.527)" stroke="#BA68C8"/>
<rect x="0.587549" y="0.394117" width="1164.25" height="1375.28" transform="matrix(0.981239 -0.192795 0.193859 0.981029 144.045 749.969)" stroke="#BA68C8"/>
<rect x="0.562502" y="0.42876" width="1157.77" height="1370.33" transform="matrix(0.991053 -0.133468 0.133951 0.990988 183.004 709.311)" stroke="#BA68C8"/>
<rect x="0.54638" y="0.448921" width="1151.25" height="1365.44" transform="matrix(0.995246 -0.0973929 0.0975146 0.995234 208.951 686.377)" stroke="#BA68C8"/>
<rect x="220.601" y="679.979" width="1144.71" height="1360.56" transform="rotate(-4.89313 220.601 679.979)" stroke="#BA68C8"/>
<rect x="-0.152079" y="-0.689113" width="1240.51" height="1433.8" transform="matrix(-0.843947 -0.536427 0.53979 -0.8418 987.302 2256.05)" stroke="#BA68C8"/>
<rect x="0.0179483" y="-0.705415" width="1232.78" height="1430.38" transform="matrix(-0.69039 -0.723438 0.726286 -0.687392 757.139 2256.35)" stroke="#BA68C8"/>
<rect x="0.186291" y="-0.680904" width="1225.17" height="1426.82" transform="matrix(-0.496885 -0.867816 0.869466 -0.493992 535.215 2201.92)" stroke="#BA68C8"/>
<rect x="0.341809" y="-0.618281" width="1217.93" height="1422.83" transform="matrix(-0.277581 -0.960702 0.961198 -0.27586 336.276 2098.3)" stroke="#BA68C8"/>
<rect x="0.475127" y="-0.523738" width="1211.21" height="1418.24" transform="matrix(-0.0485613 -0.99882 0.998816 -0.0486553 171.964 1955.49)" stroke="#BA68C8"/>
<rect x="0.57975" y="-0.406002" width="1205.01" height="1413.05" transform="matrix(0.174517 -0.984654 0.984983 0.17265 49.4547 1786.35)" stroke="#BA68C8"/>
<rect x="0.652677" y="-0.275039" width="1199.2" height="1407.39" transform="matrix(0.378535 -0.925587 0.926819 0.375509 -29.0172 1604.67)" stroke="#BA68C8"/>
<rect x="0.694425" y="-0.140676" width="1193.6" height="1401.49" transform="matrix(0.554315 -0.832307 0.834535 0.550955 -65.8094 1423.31)" stroke="#BA68C8"/>
<rect x="0.708491" y="-0.0114254" width="1188.03" height="1395.56" transform="matrix(0.697113 -0.716961 0.719869 0.69411 -66.8905 1252.87)" stroke="#BA68C8"/>
<rect x="0.700444" y="0.106271" width="1182.34" height="1389.75" transform="matrix(0.806309 -0.591495 0.594579 0.804038 -40.5232 1100.88)" stroke="#BA68C8"/>
<rect x="0.676897" y="0.208309" width="1176.45" height="1384.17" transform="matrix(0.884548 -0.46645 0.469246 0.883068 4.08392 971.729)" stroke="#BA68C8"/>
<rect x="0.644578" y="0.292747" width="1170.37" height="1378.82" transform="matrix(0.936634 -0.35031 0.352523 0.935803 57.9357 866.961)" stroke="#BA68C8"/>
<rect x="0.60964" y="0.359345" width="1164.12" height="1373.67" transform="matrix(0.968418 -0.249333 0.250862 0.968023 113.05 786.011)" stroke="#BA68C8"/>
<rect x="0.577236" y="0.408966" width="1157.74" height="1368.67" transform="matrix(0.98583 -0.167746 0.168642 0.985677 162.923 727.004)" stroke="#BA68C8"/>
<rect x="0.551341" y="0.442975" width="1151.28" height="1363.76" transform="matrix(0.994136 -0.108141 0.108547 0.994091 202.685 687.547)" stroke="#BA68C8"/>
<rect x="0.534726" y="0.46273" width="1144.79" height="1358.89" transform="matrix(0.997409 -0.071941 0.0720431 0.997401 229.06 665.392)" stroke="#BA68C8"/>
<rect x="240.797" y="659.341" width="1138.29" height="1354.04" transform="rotate(-3.42898 240.797 659.341)" stroke="#BA68C8"/>
<rect x="-0.137449" y="-0.692462" width="1233.87" height="1426.49" transform="matrix(-0.832136 -0.554572 0.557239 -0.830352 966.768 2246.33)" stroke="#BA68C8"/>
<rect x="0.0329541" y="-0.705161" width="1226.42" height="1422.8" transform="matrix(-0.674555 -0.738224 0.740463 -0.672097 737.945 2241.76)" stroke="#BA68C8"/>
<rect x="0.20079" y="-0.677011" width="1219.07" height="1419.01" transform="matrix(-0.478037 -0.87834 0.879617 -0.475683 518.464 2182.93)" stroke="#BA68C8"/>
<rect x="0.354938" y="-0.610982" width="1212.01" height="1414.87" transform="matrix(-0.256925 -0.966431 0.966801 -0.255532 322.871 2075.62)" stroke="#BA68C8"/>
<rect x="0.486149" y="-0.513514" width="1205.37" height="1410.25" transform="matrix(-0.0273258 -0.999627 0.999625 -0.0274015 162.528 1930.04)" stroke="#BA68C8"/>
<rect x="0.588141" y="-0.393513" width="1199.15" height="1405.15" transform="matrix(0.195227 -0.980758 0.981054 0.193732 44.3008 1759.16)" stroke="#BA68C8"/>
<rect x="0.658166" y="-0.261019" width="1193.24" height="1399.67" transform="matrix(0.397833 -0.917458 0.9185 0.39542 -29.8776 1576.73)" stroke="#BA68C8"/>
<rect x="0.696985" y="-0.125832" width="1187.5" height="1394" transform="matrix(0.57156 -0.82056 0.822409 0.568896 -62.6252 1395.5)" stroke="#BA68C8"/>
<rect x="0.708285" y="0.00363743" width="1181.77" height="1388.31" transform="matrix(0.71191 -0.702271 0.70466 0.709546 -60.1012 1225.88)" stroke="#BA68C8"/>
<rect x="0.697765" y="0.121093" width="1175.96" height="1382.72" transform="matrix(0.818486 -0.574527 0.577045 0.816713 -30.6776 1075.22)" stroke="#BA68C8"/>
<rect x="0.672108" y="0.222584" width="1169.99" height="1377.3" transform="matrix(0.894126 -0.447816 0.45009 0.892983 16.3987 947.663)" stroke="#BA68C8"/>
<rect x="0.638062" y="0.306313" width="1163.86" height="1372.08" transform="matrix(0.943793 -0.330537 0.33233 0.943163 72.1509 844.563)" stroke="#BA68C8"/>
<rect x="0.60177" y="0.372167" width="1157.59" height="1367.01" transform="matrix(0.973464 -0.228839 0.230075 0.973173 128.653 765.189)" stroke="#BA68C8"/>
<rect x="0.568361" y="0.421107" width="1151.23" height="1362.06" transform="matrix(0.989161 -0.146838 0.147561 0.989053 179.482 707.537)" stroke="#BA68C8"/>
<rect x="0.541778" y="0.454578" width="1144.8" height="1357.19" transform="matrix(0.996206 -0.0870222 0.0873492 0.996178 219.845 669.123)" stroke="#BA68C8"/>
<rect x="0.524763" y="0.473989" width="1138.34" height="1352.35" transform="matrix(0.998712 -0.050731 0.0508132 0.998708 246.535 647.639)" stroke="#BA68C8"/>
<rect x="258.325" y="641.881" width="1131.88" height="1347.51" transform="rotate(-2.21085 258.325 641.881)" stroke="#BA68C8"/>
<rect x="-0.125877" y="-0.694943" width="1227.23" height="1419.18" transform="matrix(-0.822503 -0.568761 0.570749 -0.821124 950.566 2235.73)" stroke="#BA68C8"/>
<rect x="0.0447836" y="-0.704798" width="1220.06" height="1415.23" transform="matrix(-0.661784 -0.749695 0.751351 -0.659902 723.145 2227.37)" stroke="#BA68C8"/>
<rect x="0.212176" y="-0.673774" width="1212.97" height="1411.2" transform="matrix(-0.46296 -0.886379 0.887312 -0.461169 505.904 2165.16)" stroke="#BA68C8"/>
<rect x="0.365191" y="-0.605056" width="1206.1" height="1406.91" transform="matrix(-0.240523 -0.970644 0.970904 -0.239468 313.226 2055.11)" stroke="#BA68C8"/>
<rect x="0.494681" y="-0.505291" width="1199.54" height="1402.26" transform="matrix(-0.0105817 -0.999944 0.999943 -0.0106387 156.232 1907.58)" stroke="#BA68C8"/>
<rect x="0.59454" y="-0.383531" width="1193.29" height="1397.25" transform="matrix(0.21145 -0.977389 0.977631 0.210326 41.5313 1735.58)" stroke="#BA68C8"/>
<rect x="0.662234" y="-0.249874" width="1187.28" height="1391.96" transform="matrix(0.412855 -0.910797 0.911613 0.411049 -29.1842 1552.81)" stroke="#BA68C8"/>
<rect x="0.698717" y="-0.114091" width="1181.39" height="1386.52" transform="matrix(0.584905 -0.811102 0.812529 0.58292 -58.7266 1371.93)" stroke="#BA68C8"/>
<rect x="0.707833" y="0.0154986" width="1175.52" height="1381.06" transform="matrix(0.723292 -0.690542 0.692373 0.72154 -53.391 1203.2)" stroke="#BA68C8"/>
<rect x="0.695376" y="0.132718" width="1169.58" height="1375.69" transform="matrix(0.827785 -0.561045 0.562966 0.82648 -21.6288 1053.77)" stroke="#BA68C8"/>
<rect x="0.668075" y="0.233741" width="1163.52" height="1370.44" transform="matrix(0.901368 -0.433053 0.434781 0.900536 27.3002 927.635)" stroke="#BA68C8"/>
<rect x="0.632692" y="0.316888" width="1157.35" height="1365.34" transform="matrix(0.949126 -0.314898 0.316258 0.948673 84.4476 825.98)" stroke="#BA68C8"/>
<rect x="0.595356" y="0.382138" width="1151.07" height="1360.35" transform="matrix(0.977129 -0.212648 0.213584 0.976925 141.947 747.943)" stroke="#BA68C8"/>
<rect x="0.561174" y="0.430533" width="1144.71" height="1355.46" transform="matrix(0.99147 -0.130332 0.130878 0.991398 193.442 691.427)" stroke="#BA68C8"/>
<rect x="0.534063" y="0.463573" width="1138.31" height="1350.62" transform="matrix(0.997522 -0.0703579 0.0706047 0.997504 234.211 653.878)" stroke="#BA68C8"/>
<rect x="0.516742" y="0.48271" width="1131.89" height="1345.8" transform="matrix(0.999422 -0.0339996 0.0340617 0.99942 261.105 632.947)" stroke="#BA68C8"/>
<rect x="272.916" y="627.426" width="1125.46" height="1340.99" transform="rotate(-1.25076 272.916 627.426)" stroke="#BA68C8"/>
<rect x="-0.117514" y="-0.696692" width="1220.59" height="1411.86" transform="matrix(-0.815337 -0.578987 0.580308 -0.814397 938.815 2224.43)" stroke="#BA68C8"/>
<rect x="0.0533219" y="-0.704497" width="1213.7" height="1407.65" transform="matrix(-0.65236 -0.757909 0.759004 -0.651086 712.806 2213.38)" stroke="#BA68C8"/>
<rect x="0.220379" y="-0.671384" width="1206.87" height="1403.39" transform="matrix(-0.451915 -0.892061 0.892672 -0.450707 497.572 2148.87)" stroke="#BA68C8"/>
<rect x="0.372545" y="-0.600705" width="1200.18" height="1398.95" transform="matrix(-0.228598 -0.973521 0.973687 -0.227889 307.324 2037.05)" stroke="#BA68C8"/>
<rect x="0.500748" y="-0.49927" width="1193.7" height="1394.27" transform="matrix(0.00149662 -0.999999 0.999999 0.00145836 153.004 1888.36)" stroke="#BA68C8"/>
<rect x="0.599019" y="-0.376246" width="1187.43" height="1389.35" transform="matrix(0.223063 -0.974804 0.974975 0.222313 41.0275 1715.82)" stroke="#BA68C8"/>
<rect x="0.664989" y="-0.241772" width="1181.32" height="1384.24" transform="matrix(0.423538 -0.905879 0.90644 0.422334 -27.087 1533.1)" stroke="#BA68C8"/>
<rect x="0.699764" y="-0.105594" width="1175.29" height="1379.04" transform="matrix(0.594342 -0.804212 0.805185 0.593024 -54.2854 1352.75)" stroke="#BA68C8"/>
<rect x="0.707299" y="0.0240435" width="1169.27" height="1373.82" transform="matrix(0.731301 -0.682055 0.683296 0.730142 -46.9533 1184.92)" stroke="#BA68C8"/>
<rect x="0.693455" y="0.14106" width="1163.2" height="1368.66" transform="matrix(0.834296 -0.551317 0.552615 0.833437 -13.5783 1036.61)" stroke="#BA68C8"/>
<rect x="0.66499" y="0.241724" width="1157.06" height="1363.58" transform="matrix(0.906404 -0.422412 0.423577 0.90586 36.5868 911.684)" stroke="#BA68C8"/>
<rect x="0.628666" y="0.324436" width="1150.83" height="1358.6" transform="matrix(0.952791 -0.303627 0.304542 0.952499 94.6262 811.217)" stroke="#BA68C8"/>
<rect x="0.5906" y="0.389246" width="1144.54" height="1353.69" transform="matrix(0.979596 -0.200976 0.201604 0.979467 152.732 734.258)" stroke="#BA68C8"/>
<rect x="0.555879" y="0.437245" width="1138.2" height="1348.85" transform="matrix(0.992963 -0.118428 0.118795 0.992919 204.611 678.641)" stroke="#BA68C8"/>
<rect x="0.528399" y="0.469976" width="1131.83" height="1344.04" transform="matrix(0.998297 -0.0583357 0.0585013 0.998287 245.596 641.768)" stroke="#BA68C8"/>
<rect x="0.510864" y="0.488916" width="1125.44" height="1339.25" transform="matrix(0.99976 -0.0219267 0.0219683 0.999759 272.587 621.264)" stroke="#BA68C8"/>
<rect x="284.394" y="615.92" width="1119.05" height="1334.47" transform="rotate(-0.558172 284.394 615.92)" stroke="#BA68C8"/>
<rect x="-0.112471" y="-0.697813" width="1213.95" height="1404.55" transform="matrix(-0.810852 -0.585251 0.585911 -0.810375 931.581 2212.62)" stroke="#BA68C8"/>
<rect x="0.0584881" y="-0.704384" width="1207.35" height="1400.08" transform="matrix(-0.646491 -0.762922 0.763467 -0.645847 706.955 2199.98)" stroke="#BA68C8"/>
<rect x="0.22535" y="-0.669983" width="1200.77" height="1395.57" transform="matrix(-0.445089 -0.895487 0.895789 -0.444479 493.412 2134.24)" stroke="#BA68C8"/>
<rect x="0.376989" y="-0.598078" width="1194.27" height="1390.98" transform="matrix(-0.221308 -0.975204 0.975285 -0.220951 305.067 2021.59)" stroke="#BA68C8"/>
<rect x="0.504375" y="-0.495597" width="1187.87" height="1386.28" transform="matrix(0.00878746 -0.999961 0.999962 0.00876823 152.708 1872.52)" stroke="#BA68C8"/>
<rect x="0.601635" y="-0.371791" width="1181.57" height="1381.45" transform="matrix(0.229987 -0.973194 0.973283 0.229611 42.6259 1700.01)" stroke="#BA68C8"/>
<rect x="0.666516" y="-0.236833" width="1175.36" height="1376.52" transform="matrix(0.429841 -0.902905 0.903191 0.429238 -23.7713 1517.69)" stroke="#BA68C8"/>
<rect x="0.700231" y="-0.100442" width="1169.18" height="1371.55" transform="matrix(0.599871 -0.800096 0.80059 0.599212 -49.5066 1338.03)" stroke="#BA68C8"/>
<rect x="0.706806" y="0.0291941" width="1163.01" height="1366.57" transform="matrix(0.735975 -0.677009 0.677637 0.735397 -40.9992 1171.07)" stroke="#BA68C8"/>
<rect x="0.692139" y="0.146062" width="1156.82" height="1361.62" transform="matrix(0.838087 -0.545536 0.546191 0.83766 -6.7392 1023.73)" stroke="#BA68C8"/>
<rect x="0.662996" y="0.246493" width="1150.59" height="1356.72" transform="matrix(0.90933 -0.416075 0.416662 0.909061 44.0453 899.782)" stroke="#BA68C8"/>
<rect x="0.626132" y="0.328939" width="1144.32" height="1351.86" transform="matrix(0.954911 -0.296891 0.297352 0.954768 102.481 800.23)" stroke="#BA68C8"/>
<rect x="0.587649" y="0.393484" width="1138.02" height="1347.04" transform="matrix(0.981006 -0.193975 0.194292 0.980944 160.815 724.061)" stroke="#BA68C8"/>
<rect x="0.552621" y="0.441251" width="1131.69" height="1342.24" transform="matrix(0.993791 -0.111267 0.111452 0.99377 212.799 669.093)" stroke="#BA68C8"/>
<rect x="0.524932" y="0.473801" width="1125.34" height="1337.47" transform="matrix(0.998694 -0.0510873 0.0511705 0.99869 253.818 632.7)" stroke="#BA68C8"/>
<rect x="0.507276" y="0.492627" width="1118.99" height="1332.71" transform="matrix(0.999893 -0.0146378 0.0146587 0.999893 280.802 612.492)" stroke="#BA68C8"/>
<rect x="292.579" y="607.266" width="1112.63" height="1327.95" transform="rotate(-0.139886 292.579 607.266)" stroke="#BA68C8"/>
<rect x="928.555" y="2201.01" width="1207.31" height="1397.24" transform="rotate(-144.016 928.555 2201.01)" stroke="#BA68C8"/>
<rect x="705" y="2187.67" width="1200.99" height="1392.5" transform="rotate(-130.113 705 2187.67)" stroke="#BA68C8"/>
<rect x="492.73" y="2121.4" width="1194.67" height="1387.76" transform="rotate(-116.27 492.73 2121.4)" stroke="#BA68C8"/>
<rect x="305.78" y="2008.51" width="1188.35" height="1383.02" transform="rotate(-102.635 305.78 2008.51)" stroke="#BA68C8"/>
<rect x="154.841" y="1859.52" width="1182.03" height="1378.28" transform="rotate(-89.3572 154.841 1859.52)" stroke="#BA68C8"/>
<rect x="46.077" y="1687.43" width="1175.72" height="1373.55" transform="rotate(-76.5749 46.077 1687.43)" stroke="#BA68C8"/>
<rect x="-19.2003" y="1505.82" width="1169.4" height="1368.81" transform="rotate(-64.4218 -19.2003 1505.82)" stroke="#BA68C8"/>
<rect x="-44.085" y="1327.06" width="1163.08" height="1364.07" transform="rotate(-53.023 -44.085 1327.06)" stroke="#BA68C8"/>
<rect x="-35.0221" y="1161.11" width="1156.76" height="1359.33" transform="rotate(-42.4949 -35.0221 1161.11)" stroke="#BA68C8"/>
<rect x="-0.484271" y="1014.78" width="1150.44" height="1354.59" transform="rotate(-32.9438 -0.484271 1014.78)" stroke="#BA68C8"/>
<rect x="50.3536" y="891.762" width="1144.13" height="1349.85" transform="rotate(-24.4656 50.3536 891.762)" stroke="#BA68C8"/>
<rect x="108.684" y="793.02" width="1137.81" height="1345.12" transform="rotate(-17.1449 108.684 793.02)" stroke="#BA68C8"/>
<rect x="166.821" y="717.52" width="1131.49" height="1340.38" transform="rotate(-11.0542 166.821 717.52)" stroke="#BA68C8"/>
<rect x="218.586" y="663.051" width="1125.17" height="1335.64" transform="rotate(-6.2538 218.586 663.051)" stroke="#BA68C8"/>
<rect x="259.407" y="627.005" width="1118.85" height="1330.9" transform="rotate(-2.79086 259.407 627.005)" stroke="#BA68C8"/>
<rect x="286.25" y="607.003" width="1112.54" height="1326.16" transform="rotate(-0.699428 286.25 607.003)" stroke="#BA68C8"/>
<rect x="297.462" y="601.347" width="1106.22" height="1321.42" stroke="#BA68C8"/>
</g>
</svg>
