<svg width="1036" height="864" viewBox="0 0 1036 864" fill="none" xmlns="http://www.w3.org/2000/svg">
<g filter="url(#filter0_f_177_800)">
<path d="M706.854 207.839C710.122 193.706 728.453 189.896 737.082 201.557L829.478 326.407C832.995 331.16 838.728 333.744 844.618 333.23L999.353 319.748C1013.8 318.489 1023.09 334.745 1014.67 346.555L924.481 473.009C921.048 477.823 920.362 484.074 922.67 489.518L983.308 632.513C988.972 645.868 976.382 659.724 962.546 655.363L814.411 608.665C808.773 606.888 802.615 608.168 798.152 612.045L680.894 713.903C669.942 723.416 652.873 715.724 652.746 701.218L651.382 545.903C651.33 539.991 648.21 534.531 643.143 531.484L510.036 451.44C497.604 443.965 499.645 425.354 513.401 420.751L660.693 371.458C666.3 369.582 670.529 364.927 671.861 359.167L706.854 207.839Z" fill="#A83CDB" fill-opacity="0.2"/>
</g>
<g filter="url(#filter1_d_177_800)">
<rect width="251.764" height="251.764" transform="matrix(0.82704 0.562144 -0.82704 0.562144 921.881 312.03)" fill="#340B54" fill-opacity="0.58"/>
</g>
<g filter="url(#filter2_d_177_800)">
<rect width="305.893" height="305.893" transform="matrix(0.827039 0.562144 -0.827039 0.562144 612.437 504.907)" fill="#340B54" fill-opacity="0.58"/>
</g>
<g filter="url(#filter3_d_177_800)">
<rect width="305.893" height="305.893" transform="matrix(0.827039 0.562144 -0.827039 0.562144 569.258 102.681)" fill="#340B54" fill-opacity="0.58"/>
</g>
<g filter="url(#filter4_d_177_800)">
<rect width="251.764" height="251.764" transform="matrix(0.82704 0.562144 -0.82704 0.562144 289.4 312.488)" fill="#340B54" fill-opacity="0.58"/>
</g>
<g filter="url(#filter5_d_177_800)">
<rect width="251.764" height="251.764" transform="matrix(0.82704 0.562144 -0.82704 0.562144 212.219 0)" fill="#340B54" fill-opacity="0.58"/>
</g>
<defs>
<filter id="filter0_f_177_800" x="356.793" y="49.6602" width="806.075" height="813.44" filterUnits="userSpaceOnUse" color-interpolation-filters="sRGB">
<feFlood flood-opacity="0" result="BackgroundImageFix"/>
<feBlend mode="normal" in="SourceGraphic" in2="BackgroundImageFix" result="shape"/>
<feGaussianBlur stdDeviation="72.5" result="effect1_foregroundBlur_177_800"/>
</filter>
<filter id="filter1_d_177_800" x="709.662" y="312.03" width="424.438" height="291.055" filterUnits="userSpaceOnUse" color-interpolation-filters="sRGB">
<feFlood flood-opacity="0" result="BackgroundImageFix"/>
<feColorMatrix in="SourceAlpha" type="matrix" values="0 0 0 0 0 0 0 0 0 0 0 0 0 0 0 0 0 0 127 0" result="hardAlpha"/>
<feOffset dy="4"/>
<feGaussianBlur stdDeviation="2"/>
<feComposite in2="hardAlpha" operator="out"/>
<feColorMatrix type="matrix" values="0 0 0 0 0 0 0 0 0 0 0 0 0 0 0 0 0 0 0.25 0"/>
<feBlend mode="normal" in2="BackgroundImageFix" result="effect1_dropShadow_177_800"/>
<feBlend mode="normal" in="SourceGraphic" in2="effect1_dropShadow_177_800" result="shape"/>
</filter>
<filter id="filter2_d_177_800" x="355.451" y="504.907" width="513.971" height="351.912" filterUnits="userSpaceOnUse" color-interpolation-filters="sRGB">
<feFlood flood-opacity="0" result="BackgroundImageFix"/>
<feColorMatrix in="SourceAlpha" type="matrix" values="0 0 0 0 0 0 0 0 0 0 0 0 0 0 0 0 0 0 127 0" result="hardAlpha"/>
<feOffset dy="4"/>
<feGaussianBlur stdDeviation="2"/>
<feComposite in2="hardAlpha" operator="out"/>
<feColorMatrix type="matrix" values="0 0 0 0 0 0 0 0 0 0 0 0 0 0 0 0 0 0 0.25 0"/>
<feBlend mode="normal" in2="BackgroundImageFix" result="effect1_dropShadow_177_800"/>
<feBlend mode="normal" in="SourceGraphic" in2="effect1_dropShadow_177_800" result="shape"/>
</filter>
<filter id="filter3_d_177_800" x="312.272" y="102.681" width="513.971" height="351.912" filterUnits="userSpaceOnUse" color-interpolation-filters="sRGB">
<feFlood flood-opacity="0" result="BackgroundImageFix"/>
<feColorMatrix in="SourceAlpha" type="matrix" values="0 0 0 0 0 0 0 0 0 0 0 0 0 0 0 0 0 0 127 0" result="hardAlpha"/>
<feOffset dy="4"/>
<feGaussianBlur stdDeviation="2"/>
<feComposite in2="hardAlpha" operator="out"/>
<feColorMatrix type="matrix" values="0 0 0 0 0 0 0 0 0 0 0 0 0 0 0 0 0 0 0.25 0"/>
<feBlend mode="normal" in2="BackgroundImageFix" result="effect1_dropShadow_177_800"/>
<feBlend mode="normal" in="SourceGraphic" in2="effect1_dropShadow_177_800" result="shape"/>
</filter>
<filter id="filter4_d_177_800" x="77.1816" y="312.488" width="424.438" height="291.055" filterUnits="userSpaceOnUse" color-interpolation-filters="sRGB">
<feFlood flood-opacity="0" result="BackgroundImageFix"/>
<feColorMatrix in="SourceAlpha" type="matrix" values="0 0 0 0 0 0 0 0 0 0 0 0 0 0 0 0 0 0 127 0" result="hardAlpha"/>
<feOffset dy="4"/>
<feGaussianBlur stdDeviation="2"/>
<feComposite in2="hardAlpha" operator="out"/>
<feColorMatrix type="matrix" values="0 0 0 0 0 0 0 0 0 0 0 0 0 0 0 0 0 0 0.25 0"/>
<feBlend mode="normal" in2="BackgroundImageFix" result="effect1_dropShadow_177_800"/>
<feBlend mode="normal" in="SourceGraphic" in2="effect1_dropShadow_177_800" result="shape"/>
</filter>
<filter id="filter5_d_177_800" x="0" y="0" width="424.438" height="291.055" filterUnits="userSpaceOnUse" color-interpolation-filters="sRGB">
<feFlood flood-opacity="0" result="BackgroundImageFix"/>
<feColorMatrix in="SourceAlpha" type="matrix" values="0 0 0 0 0 0 0 0 0 0 0 0 0 0 0 0 0 0 127 0" result="hardAlpha"/>
<feOffset dy="4"/>
<feGaussianBlur stdDeviation="2"/>
<feComposite in2="hardAlpha" operator="out"/>
<feColorMatrix type="matrix" values="0 0 0 0 0 0 0 0 0 0 0 0 0 0 0 0 0 0 0.25 0"/>
<feBlend mode="normal" in2="BackgroundImageFix" result="effect1_dropShadow_177_800"/>
<feBlend mode="normal" in="SourceGraphic" in2="effect1_dropShadow_177_800" result="shape"/>
</filter>
</defs>
</svg>
